<?xml version="1.0" encoding="UTF-8" standalone="no"?>
<svg
   xmlns:dc="http://purl.org/dc/elements/1.1/"
   xmlns:cc="http://creativecommons.org/ns#"
   xmlns:rdf="http://www.w3.org/1999/02/22-rdf-syntax-ns#"
   xmlns:svg="http://www.w3.org/2000/svg"
   xmlns="http://www.w3.org/2000/svg"
   xmlns:sodipodi="http://sodipodi.sourceforge.net/DTD/sodipodi-0.dtd"
   xmlns:inkscape="http://www.inkscape.org/namespaces/inkscape"
   inkscape:version="1.0 (6e3e5246a0, 2020-05-07)"
   sodipodi:docname="logo.svg"
   id="svg70"
   version="1.1"
   fill="none"
   viewBox="0 0 231 134"
   height="134"
   width="231">
  <metadata
     id="metadata76">
    <rdf:RDF>
      <cc:Work
         rdf:about="">
        <dc:format>image/svg+xml</dc:format>
        <dc:type
           rdf:resource="http://purl.org/dc/dcmitype/StillImage" />
      </cc:Work>
    </rdf:RDF>
  </metadata>
  <defs
     id="defs74" />
  <sodipodi:namedview
     inkscape:current-layer="svg70"
     inkscape:window-maximized="1"
     inkscape:window-y="34"
     inkscape:window-x="48"
     inkscape:cy="89.319267"
     inkscape:cx="155.02736"
     inkscape:zoom="2.0037313"
     showgrid="false"
     id="namedview72"
     inkscape:window-height="703"
     inkscape:window-width="1318"
     inkscape:pageshadow="2"
     inkscape:pageopacity="0"
     guidetolerance="10"
     gridtolerance="10"
     objecttolerance="10"
     borderopacity="1"
     bordercolor="#666666"
     pagecolor="#ffffff" />
  <rect
     y="-1.1654534"
     x="-0.20662676"
     height="137.89984"
     width="232.42848"
     id="rect78"
     style="fill:#241c1c;stroke-width:1.01079" />
  <path
     style="stroke-width:0.927923"
     d="m 58.148928,121.00906 v -0.80636 h 3.332448 v 0.80636 l -1.038624,0.17816 v 3.19391 h 4.498569 v -3.19391 l -1.038624,-0.17816 v -0.80636 h 3.332449 v 0.80636 l -1.038624,0.17816 v 7.28327 l 1.038624,0.17816 v 0.79987 h -3.332449 v -0.79987 l 1.038624,-0.17816 v -3.10483 h -4.498569 v 3.10483 l 1.038624,0.17816 v 0.79987 h -3.332448 v -0.79987 l 1.038623,-0.17816 v -7.28327 z"
     fill="#999591"
     id="path2" />
  <path
     style="stroke-width:0.927923"
     d="m 72.791361,129.44852 c -0.03823,-0.18559 -0.06792,-0.35354 -0.08917,-0.50108 -0.02125,-0.14847 -0.0361,-0.29693 -0.04463,-0.44447 -0.242095,0.30899 -0.545804,0.56696 -0.911127,0.77388 -0.361055,0.20322 -0.747627,0.30529 -1.159718,0.30529 -0.717841,0 -1.263737,-0.17352 -1.637505,-0.52056 -0.37386,-0.35169 -0.560743,-0.84441 -0.560743,-1.48004 0,-0.6514 0.263344,-1.15341 0.790126,-1.50509 0.530957,-0.3554 1.257335,-0.53356 2.179133,-0.53356 h 1.293524 v -0.79987 c 0,-0.40179 -0.127496,-0.72006 -0.382304,-0.95204 -0.2549,-0.23755 -0.609645,-0.35633 -1.064141,-0.35633 -0.314288,0 -0.592572,0.0408 -0.834667,0.12063 -0.237919,0.0807 -0.431205,0.19115 -0.579859,0.33034 l -0.133806,0.72378 h -0.968566 v -1.33342 c 0.314381,-0.24961 0.69455,-0.44819 1.140603,-0.59666 0.446052,-0.15218 0.930242,-0.22827 1.452755,-0.22827 0.78159,0 1.414526,0.19858 1.898808,0.59666 0.484283,0.39808 0.726378,0.96689 0.726378,1.7083 v 3.30805 c 0,0.0891 0,0.1763 0,0.26074 0.0043,0.0844 0.01067,0.16889 0.01912,0.25426 l 0.5098,0.0696 v 0.79987 z m -2.019809,-0.914 c 0.416266,0 0.796436,-0.0993 1.140509,-0.2988 0.344074,-0.19857 0.590437,-0.43798 0.739183,-0.71728 v -1.13021 h -1.338157 c -0.513976,0 -0.921705,0.11785 -1.223373,0.35539 -0.297306,0.23663 -0.44596,0.52521 -0.44596,0.8639 0,0.30065 0.09344,0.53077 0.280326,0.69223 0.186883,0.15589 0.469343,0.23477 0.847472,0.23477 z"
     fill="#999591"
     id="path4" />
  <path
     style="stroke-width:0.927923"
     d="m 75.480295,128.64865 1.038624,-0.17816 v -4.90871 l -1.038624,-0.17724 v -0.80729 h 2.293917 v 5.89324 l 1.038624,0.17816 v 0.79987 h -3.332541 z m 2.293917,-7.82981 h -1.255293 v -1.27682 h 1.255293 z"
     fill="#999591"
     id="path6" />
  <path
     style="stroke-width:0.927923"
     d="m 79.774906,123.38454 v -0.80729 h 2.160111 l 0.121001,0.99752 c 0.195421,-0.35168 0.435474,-0.62635 0.720068,-0.82585 0.288863,-0.19858 0.618089,-0.29787 0.987588,-0.29787 0.09771,0 0.197555,0.008 0.299534,0.0251 0.106154,0.013 0.186883,0.0278 0.242095,0.0445 l -0.165634,1.16176 -0.713666,-0.038 c -0.331361,0 -0.609552,0.0789 -0.834666,0.23477 -0.225207,0.1531 -0.399378,0.36838 -0.522513,0.64769 v 3.94367 l 1.038623,0.17816 v 0.79987 h -3.332541 v -0.79987 l 1.038624,-0.17816 v -4.90871 z"
     fill="#999591"
     id="path8" />
  <path
     style="stroke-width:0.927923"
     d="m 88.147552,128.60411 c 0.416266,0 0.781589,-0.12713 1.095969,-0.38138 0.318556,-0.25796 0.47788,-0.57345 0.47788,-0.94555 h 1.127797 l 0.01271,0.0381 c 0.02125,0.59294 -0.244229,1.12 -0.796436,1.58118 -0.547938,0.45746 -1.187277,0.68573 -1.917923,0.68573 -1.002528,0 -1.76927,-0.3257 -2.300228,-0.97803 -0.526781,-0.65233 -0.790126,-1.47076 -0.790126,-2.45714 v -0.26724 c 0,-0.97803 0.265479,-1.79275 0.796529,-2.44508 0.530957,-0.65604 1.295566,-0.9836 2.293825,-0.9836 0.552207,0 1.047068,0.0909 1.484676,0.27281 0.441691,0.18188 0.807014,0.43149 1.095877,0.74884 l 0.05734,1.52457 h -1.0003 l -0.274016,-1.0801 c -0.148653,-0.14383 -0.339805,-0.25982 -0.573456,-0.3489 -0.233651,-0.0891 -0.496995,-0.13362 -0.790126,-0.13362 -0.658454,0 -1.129932,0.23755 -1.414525,0.71172 -0.280419,0.46953 -0.420535,1.04762 -0.420535,1.73336 v 0.26724 c 0,0.70244 0.140116,1.28889 0.420535,1.75841 0.280325,0.46582 0.751802,0.69873 1.414525,0.69873 z"
     fill="#999591"
     id="path10" />
  <path
     style="stroke-width:0.927923"
     d="m 97.017193,128.43244 c -0.21667,0.36839 -0.497088,0.65233 -0.841162,0.85091 -0.339805,0.1995 -0.732688,0.29879 -1.17874,0.29879 -0.747627,0 -1.331755,-0.2394 -1.752289,-0.71728 -0.420535,-0.47881 -0.630802,-1.22393 -0.630802,-2.23537 v -3.06771 l -0.790126,-0.17724 v -0.80729 h 2.04542 v 4.0643 c 0,0.73306 0.108288,1.23692 0.324958,1.51159 0.216577,0.27559 0.554341,0.41292 1.013106,0.41292 0.446052,0 0.81351,-0.0891 1.102279,-0.26631 0.293131,-0.1828 0.514069,-0.43891 0.662723,-0.76925 v -3.96872 l -0.923933,-0.17724 v -0.80729 h 2.179133 v 5.89324 l 0.79013,0.17816 v 0.79987 h -1.917927 z"
     fill="#999591"
     id="path12" />
  <path
     style="stroke-width:0.927923"
     d="m 102.20345,120.91998 v 1.65727 h 1.30651 v 0.92792 h -1.30651 v 4.17194 c 0,0.32199 0.0659,0.54841 0.19764,0.67924 0.13641,0.13177 0.31457,0.19672 0.53541,0.19672 0.11043,0 0.23384,-0.008 0.36932,-0.025 0.14011,-0.0213 0.25703,-0.0427 0.35075,-0.064 l 0.17167,0.8574 c -0.11878,0.077 -0.2923,0.13826 -0.52242,0.18466 -0.2292,0.051 -0.4584,0.0761 -0.68759,0.0761 -0.51036,0 -0.91586,-0.15218 -1.21744,-0.45747 -0.30157,-0.30899 -0.45189,-0.79151 -0.45189,-1.44756 v -4.17194 h -1.08994 v -0.92792 h 1.08994 v -1.65727 z"
     fill="#999591"
     id="path14" />
  <path
     style="stroke-width:0.927923"
     d="m 110.06666,124.73653 h -0.94277 l -0.20414,-0.82492 c -0.15311,-0.14476 -0.34612,-0.2589 -0.57995,-0.34334 -0.2292,-0.0891 -0.49087,-0.13362 -0.78317,-0.13362 -0.44633,0 -0.7776,0.0974 -0.99473,0.2923 -0.21621,0.19486 -0.32477,0.42963 -0.32477,0.70522 0,0.27095 0.0956,0.48438 0.28672,0.64119 0.19116,0.15682 0.57996,0.29601 1.1664,0.41943 0.87039,0.18558 1.51808,0.43983 1.94307,0.76182 0.42499,0.31735 0.63748,0.74512 0.63748,1.28239 0,0.60964 -0.24868,1.1033 -0.74604,1.48004 -0.49273,0.37673 -1.13857,0.5651 -1.93658,0.5651 -0.52242,0 -0.99195,-0.0594 -1.40859,-0.17816 -0.4157,-0.12249 -0.7878,-0.29786 -1.11443,-0.52706 l -0.007,-1.56819 h 0.94277 l 0.23569,0.9205 c 0.14476,0.13176 0.33962,0.22641 0.58645,0.2858 0.25054,0.0594 0.50572,0.0891 0.76461,0.0891 0.44633,0 0.7943,-0.0891 1.04484,-0.26631 0.25518,-0.1828 0.38231,-0.41943 0.38231,-0.71172 0,-0.27467 -0.10579,-0.50201 -0.31828,-0.67924 -0.20878,-0.17816 -0.60594,-0.3322 -1.19146,-0.46396 -0.83699,-0.18187 -1.46797,-0.42963 -1.89296,-0.74234 -0.42499,-0.31364 -0.63748,-0.73677 -0.63748,-1.27033 0,-0.5586 0.23847,-1.03556 0.7145,-1.429 0.47973,-0.39344 1.10237,-0.59016 1.86698,-0.59016 0.52242,0 0.99102,0.0677 1.40766,0.20322 0.41664,0.13548 0.76275,0.32384 1.03835,0.5651 z"
     fill="#999591"
     id="path16" />
  <path
     style="stroke-width:0.927923"
     d="m 114.59678,126.95983 c 0,-0.51685 0.1494,-0.96782 0.44633,-1.35291 0.30158,-0.38973 0.74976,-0.77946 1.34456,-1.16825 -0.33127,-0.41943 -0.5781,-0.79245 -0.73955,-1.11815 -0.16146,-0.33034 -0.24219,-0.66903 -0.24219,-1.01608 0,-0.71543 0.206,-1.26568 0.618,-1.65077 0.41663,-0.38973 0.98823,-0.58459 1.7148,-0.58459 0.67088,0 1.2165,0.19301 1.63685,0.57809 0.42128,0.38509 0.63099,0.84905 0.63099,1.39096 0,0.41478 -0.11228,0.77481 -0.33776,1.07917 -0.22085,0.30065 -0.55026,0.60965 -0.98731,0.927 l -0.69502,0.5085 2.1667,2.59725 c 0.17445,-0.27559 0.30993,-0.57995 0.40829,-0.91493 0.0974,-0.33405 0.14661,-0.68759 0.14661,-1.06061 h 1.12093 c 0,0.5549 -0.0826,1.06896 -0.24868,1.54313 -0.16517,0.47417 -0.40551,0.90009 -0.72007,1.27682 l 1.17939,1.42251 -0.013,0.0316 h -1.45963 l -0.54097,-0.64769 c -0.33962,0.25425 -0.71636,0.44911 -1.12836,0.58459 -0.412,0.13084 -0.83884,0.19672 -1.28053,0.19672 -0.92143,0 -1.65634,-0.24312 -2.20475,-0.73028 -0.54376,-0.48715 -0.81564,-1.11814 -0.81564,-1.89203 z m 3.02039,1.64428 c 0.30621,0 0.60779,-0.051 0.90472,-0.15218 0.29787,-0.10578 0.5781,-0.25611 0.84163,-0.45097 l -2.30032,-2.76243 -0.25518,0.18373 c -0.38602,0.28859 -0.64305,0.56325 -0.7711,0.82585 -0.12342,0.26261 -0.18466,0.49923 -0.18466,0.71172 0,0.47788 0.15125,0.87132 0.45283,1.18032 0.30157,0.30992 0.73862,0.46396 1.31208,0.46396 z m -0.95576,-6.31266 c 0,0.22456 0.0575,0.45932 0.17259,0.70522 0.11414,0.24126 0.28673,0.50572 0.51593,0.79431 l 0.87874,-0.60408 c 0.24219,-0.16053 0.40643,-0.33405 0.49087,-0.52057 0.0891,-0.19022 0.13362,-0.39993 0.13362,-0.6282 0,-0.25889 -0.10393,-0.48716 -0.31178,-0.68574 -0.20414,-0.1995 -0.47139,-0.29879 -0.80265,-0.29879 -0.34426,0 -0.60965,0.12063 -0.79709,0.36189 -0.18651,0.23755 -0.28023,0.52892 -0.28023,0.87596 z"
     fill="#999591"
     id="path18" />
  <path
     style="stroke-width:0.927923"
     d="m 132.76365,122.93357 h -0.95019 l -0.2357,-1.32136 c -0.19115,-0.16053 -0.4454,-0.29415 -0.7646,-0.39993 -0.31828,-0.10579 -0.6876,-0.15868 -1.10887,-0.15868 -0.66625,0 -1.17846,0.14198 -1.53479,0.42499 -0.35725,0.28023 -0.53541,0.64584 -0.53541,1.09866 0,0.40272 0.18002,0.73956 0.54098,1.01051 0.3656,0.26631 0.95391,0.50108 1.76584,0.70429 0.97617,0.24126 1.71758,0.59759 2.2233,1.06711 0.50943,0.46953 0.76461,1.05227 0.76461,1.74635 0,0.74513 -0.30622,1.34456 -0.91772,1.79739 -0.60686,0.45283 -1.40394,0.67924 -2.3894,0.67924 -0.71357,0 -1.34827,-0.11599 -1.90502,-0.3489 -0.55212,-0.23291 -1.00216,-0.53819 -1.35106,-0.91493 v -1.7213 h 0.9437 l 0.24126,1.32786 c 0.24219,0.19858 0.5317,0.36189 0.86668,0.48902 0.33591,0.12712 0.7377,0.19022 1.20444,0.19022 0.63285,0 1.13207,-0.13362 1.49767,-0.39994 0.36931,-0.26724 0.55397,-0.62913 0.55397,-1.08566 0,-0.42407 -0.15868,-0.7776 -0.47788,-1.06062 -0.31828,-0.28858 -0.88153,-0.52984 -1.68789,-0.72378 -0.98174,-0.23291 -1.74821,-0.57624 -2.30032,-1.02907 -0.55212,-0.45282 -0.82864,-1.02257 -0.82864,-1.7083 0,-0.72378 0.30807,-1.32507 0.92421,-1.80388 0.61522,-0.48252 1.41601,-0.72378 2.40147,-0.72378 0.65047,0 1.24063,0.11228 1.7714,0.33683 0.53541,0.21992 0.96504,0.48902 1.28796,0.80637 z"
     fill="#999591"
     id="path20" />
  <path
     style="stroke-width:0.927923"
     d="m 133.94211,128.64865 1.03835,-0.17816 v -7.94395 l -1.03835,-0.17816 v -0.80636 h 2.29383 v 3.95016 c 0.23754,-0.33034 0.52891,-0.58644 0.87317,-0.76832 0.34333,-0.18187 0.72564,-0.27281 1.14691,-0.27281 0.73863,0 1.31209,0.21992 1.72037,0.65976 0.40736,0.44076 0.6115,1.11814 0.6115,2.03215 v 3.32753 l 1.03835,0.17816 v 0.79987 h -3.33217 v -0.79987 l 1.03834,-0.17816 v -3.33959 c 0,-0.56789 -0.12341,-0.98639 -0.36931,-1.25734 -0.24219,-0.27095 -0.60501,-0.40643 -1.08938,-0.40643 -0.34426,0 -0.65883,0.0817 -0.9437,0.24683 -0.28023,0.16146 -0.51128,0.38137 -0.69408,0.66068 v 4.09585 l 1.03834,0.17816 v 0.79987 h -3.33217 z"
     fill="#999591"
     id="path22" />
  <path
     style="stroke-width:0.927923"
     d="m 147.03603,129.44852 c -0.038,-0.18559 -0.0677,-0.35354 -0.0891,-0.50108 -0.0213,-0.14847 -0.0362,-0.29693 -0.0445,-0.44447 -0.24219,0.30899 -0.54562,0.56696 -0.91122,0.77388 -0.36097,0.20322 -0.74791,0.30529 -1.15991,0.30529 -0.71728,0 -1.26383,-0.17352 -1.63778,-0.52056 -0.37303,-0.35169 -0.56047,-0.84441 -0.56047,-1.48004 0,-0.6514 0.26353,-1.15341 0.79059,-1.50509 0.53078,-0.3554 1.25734,-0.53356 2.17877,-0.53356 h 1.29352 v -0.79987 c 0,-0.40179 -0.12713,-0.72006 -0.3823,-0.95204 -0.25518,-0.23755 -0.60965,-0.35633 -1.06433,-0.35633 -0.31364,0 -0.59202,0.0408 -0.8342,0.12063 -0.23848,0.0807 -0.43149,0.19115 -0.57996,0.33034 l -0.13362,0.72378 h -0.96875 v -1.33342 c 0.31457,-0.24961 0.69409,-0.44819 1.14042,-0.59666 0.44633,-0.15218 0.93071,-0.22827 1.45313,-0.22827 0.78131,0 1.41415,0.19858 1.89853,0.59666 0.48437,0.39808 0.72656,0.96689 0.72656,1.7083 v 3.30805 c 0,0.0891 0,0.1763 0,0.26074 0.004,0.0844 0.0102,0.16889 0.0186,0.25426 l 0.51036,0.0696 v 0.79987 z m -2.02009,-0.914 c 0.41664,0 0.79708,-0.0993 1.14042,-0.2988 0.34425,-0.19857 0.59108,-0.43798 0.73955,-0.71728 v -1.13021 h -1.33806 c -0.51407,0 -0.92143,0.11785 -1.22301,0.35539 -0.29786,0.23663 -0.44633,0.52521 -0.44633,0.8639 0,0.30065 0.0937,0.53077 0.28024,0.69223 0.18651,0.15589 0.46952,0.23477 0.84719,0.23477 z"
     fill="#999591"
     id="path24" />
  <path
     style="stroke-width:0.927923"
     d="m 151.98742,123.38454 -0.82863,0.1262 1.42065,3.91212 0.11506,0.49551 h 0.038 l 0.12063,-0.49551 1.37704,-3.91212 -0.83513,-0.1262 v -0.80729 h 2.66314 v 0.80729 l -0.56696,0.0947 -2.31239,5.96933 h -0.94926 l -2.33929,-5.96933 -0.56696,-0.0947 v -0.80729 h 2.66406 z"
     fill="#999591"
     id="path26" />
  <path
     style="stroke-width:0.927923"
     d="m 159.97127,129.58214 c -0.9604,0 -1.72501,-0.31735 -2.29383,-0.95298 -0.5651,-0.63841 -0.84812,-1.46611 -0.84812,-2.48219 v -0.28023 c 0,-0.9771 0.29137,-1.78996 0.87318,-2.43858 0.58644,-0.6514 1.27867,-0.97711 2.07762,-0.97711 0.92606,0 1.62664,0.27931 2.10267,0.83792 0.47973,0.55861 0.72007,1.30373 0.72007,2.23536 v 0.78132 h -4.47352 l -0.0186,0.0315 c 0.0121,0.66069 0.18002,1.20445 0.50294,1.63222 0.32291,0.42313 0.77574,0.6347 1.35755,0.6347 0.42406,0 0.79615,-0.0594 1.11443,-0.17816 0.32292,-0.12249 0.6013,-0.28951 0.83513,-0.50108 l 0.49087,0.81286 c -0.24682,0.23662 -0.57345,0.43798 -0.98174,0.60315 -0.40364,0.16053 -0.88988,0.24126 -1.45869,0.24126 z m -0.19115,-6.14749 c -0.42128,0 -0.77946,0.17816 -1.07732,0.53356 -0.29694,0.35168 -0.47974,0.7943 -0.54748,1.32786 l 0.0121,0.0315 h 3.17999 v -0.16517 c 0,-0.49087 -0.13177,-0.90194 -0.3953,-1.23228 -0.26353,-0.33034 -0.65418,-0.49551 -1.17196,-0.49551 z"
     fill="#999591"
     id="path28" />
  <path
     style="stroke-width:0.927923"
     d="m 169.12058,124.73653 h -0.94277 l -0.20414,-0.82492 c -0.15218,-0.14476 -0.34611,-0.2589 -0.57995,-0.34334 -0.2292,-0.0891 -0.48994,-0.13362 -0.78317,-0.13362 -0.44633,0 -0.7776,0.0974 -0.9938,0.2923 -0.21714,0.19486 -0.3257,0.42963 -0.3257,0.70522 0,0.27095 0.0956,0.48438 0.28673,0.64119 0.19115,0.15682 0.57995,0.29601 1.16639,0.41943 0.87132,0.18558 1.51901,0.43983 1.94307,0.76182 0.42499,0.31735 0.63749,0.74512 0.63749,1.28239 0,0.60964 -0.24869,1.1033 -0.74512,1.48004 -0.49273,0.37673 -1.13857,0.5651 -1.93751,0.5651 -0.52242,0 -0.99195,-0.0594 -1.40766,-0.17816 -0.41663,-0.12249 -0.78873,-0.29786 -1.11536,-0.52706 l -0.006,-1.56819 h 0.94277 l 0.23569,0.9205 c 0.14475,0.13176 0.34055,0.22641 0.58644,0.2858 0.25054,0.0594 0.50572,0.0891 0.76461,0.0891 0.44633,0 0.7943,-0.0891 1.04484,-0.26631 0.25518,-0.1828 0.38231,-0.41943 0.38231,-0.71172 0,-0.27467 -0.10579,-0.50201 -0.31828,-0.67924 -0.20785,-0.17816 -0.60501,-0.3322 -1.19145,-0.46396 -0.83699,-0.18187 -1.46798,-0.42963 -1.89204,-0.74234 -0.42499,-0.31364 -0.63748,-0.73677 -0.63748,-1.27033 0,-0.5586 0.23755,-1.03556 0.71357,-1.429 0.47974,-0.39344 1.10238,-0.59016 1.86698,-0.59016 0.52242,0 0.99195,0.0677 1.40766,0.20322 0.41664,0.13548 0.76275,0.32384 1.03928,0.5651 z"
     fill="#999591"
     id="path30" />
  <path
     style="stroke-width:0.927923"
     d="m 84.235245,13.686529 0.688147,-0.09525 3.243275,-8.3507652 h 1.076854 l 3.18593,8.3507652 0.681744,0.09525 v 0.800157 h -2.663416 v -0.800157 l 0.700953,-0.120658 -0.611687,-1.701902 H 86.8222 l -0.630802,1.701902 0.700953,0.120658 v 0.800157 h -2.657106 z m 2.975662,-2.870371 h 2.943834 L 88.714698,6.847164 h -0.03823 z"
     fill="#999591"
     id="path32" />
  <path
     style="stroke-width:0.927923"
     d="m 95.666323,8.422062 -0.790126,0.139708 0.898507,3.422856 0.146519,0.831902 h 0.03823 l 0.178439,-0.831902 1.376295,-4.369067 h 1.006703 l 1.38316,4.369067 0.19672,0.927162 h 0.039 l 0.18466,-0.927162 0.84719,-3.422856 -0.80265,-0.139708 V 7.615559 h 2.62509 v 0.806503 l -0.59944,0.08891 -1.73892,5.975719 H 99.64238 L 98.30431,10.301774 98.01759,9.146 97.97936,9.1523 97.711747,10.301717 96.399107,14.48663 H 95.385998 L 93.646514,8.51091 93.041137,8.42201 V 7.615506 h 2.625186 z"
     fill="#999591"
     id="path34" />
  <path
     style="stroke-width:0.927923"
     d="m 107.16134,14.620047 c -0.9604,0 -1.72501,-0.317526 -2.29383,-0.952568 -0.5651,-0.639274 -0.84812,-1.466934 -0.84812,-2.483 v -0.279416 c 0,-0.977966 0.29137,-1.790807 0.87318,-2.438553 0.58644,-0.651968 1.27867,-0.977956 2.07761,-0.977956 0.92607,0 1.62665,0.279416 2.10268,0.838248 0.47973,0.558832 0.72006,1.303945 0.72006,2.235338 v 0.781097 h -4.47351 l -0.0186,0.03175 c 0.0121,0.660439 0.18002,1.204462 0.50293,1.632048 0.32292,0.423365 0.77575,0.635043 1.35756,0.635043 0.42498,0 0.79615,-0.05927 1.11443,-0.177809 0.32292,-0.122773 0.6013,-0.290003 0.83513,-0.501681 l 0.49087,0.812851 c -0.24682,0.237075 -0.57345,0.438174 -0.98174,0.603279 -0.40365,0.160874 -0.88988,0.241325 -1.45869,0.241325 z m -0.19116,-6.147181 c -0.42034,0 -0.77945,0.177809 -1.07731,0.533426 -0.29694,0.351395 -0.47974,0.7938 -0.54748,1.327235 l 0.013,0.03175 h 3.17907 v -0.165115 c 0,-0.491093 -0.13177,-0.901755 -0.3953,-1.231975 -0.26353,-0.33022 -0.65419,-0.495325 -1.17197,-0.495325 z"
     fill="#999591"
     id="path36" />
  <path
     style="stroke-width:0.927923"
     d="m 116.31065,9.774695 h -0.94277 l -0.20414,-0.825554 c -0.15218,-0.143939 -0.34611,-0.25825 -0.57902,-0.342923 -0.23013,-0.0889 -0.49087,-0.133352 -0.7841,-0.133352 -0.44633,0 -0.7776,0.09737 -0.9938,0.29211 -0.21714,0.194753 -0.32478,0.429712 -0.32478,0.704897 0,0.270953 0.0956,0.484746 0.28673,0.641389 0.19115,0.156643 0.57903,0.296351 1.16547,0.419124 0.87132,0.186281 1.51901,0.440299 1.944,0.762047 0.42406,0.317526 0.63656,0.745113 0.63656,1.282779 0,0.609645 -0.24869,1.102855 -0.74513,1.479647 -0.49272,0.376783 -1.13856,0.565188 -1.9375,0.565188 -0.52242,0 -0.99195,-0.05929 -1.40766,-0.177818 -0.41663,-0.122773 -0.7878,-0.298466 -1.11536,-0.527078 l -0.007,-1.568551 h 0.94277 l 0.23662,0.920805 c 0.14383,0.131246 0.33962,0.226497 0.58552,0.285772 0.25054,0.05927 0.50572,0.0889 0.76461,0.0889 0.44633,0 0.7943,-0.0889 1.04484,-0.266713 0.25518,-0.182049 0.38231,-0.419133 0.38231,-0.711243 0,-0.275185 -0.10579,-0.501682 -0.31828,-0.6795 -0.20786,-0.177808 -0.60501,-0.332335 -1.19145,-0.46358 -0.83699,-0.18204 -1.46798,-0.429703 -1.89204,-0.742988 -0.42499,-0.313285 -0.63748,-0.73665 -0.63748,-1.270085 0,-0.558832 0.23755,-1.035107 0.71357,-1.428834 0.47974,-0.393726 1.10237,-0.590585 1.86698,-0.590585 0.52242,0 0.99195,0.06774 1.40859,0.203206 0.41571,0.135476 0.76182,0.323872 1.03834,0.565188 z"
     fill="#999591"
     id="path38" />
  <path
     style="stroke-width:0.927923"
     d="m 117.69419,10.98762 c 0,-1.016066 0.27559,-1.852199 0.8277,-2.508407 0.55212,-0.660439 1.30188,-0.990659 2.24929,-0.990659 0.95205,0 1.70366,0.328104 2.25578,0.984312 0.55675,0.656199 0.83513,1.494457 0.83513,2.514754 v 0.139708 c 0,1.024529 -0.27652,1.862777 -0.82864,2.514754 -0.55211,0.651977 -1.30187,0.977965 -2.24928,0.977965 -0.95576,0 -1.71016,-0.325988 -2.26228,-0.977965 -0.55211,-0.656209 -0.8277,-1.494457 -0.8277,-2.514754 z m 1.25455,0.139708 c 0,0.728178 0.1531,1.329342 0.45932,1.80351 0.30992,0.47416 0.76832,0.711244 1.37611,0.711244 0.5948,0 1.04669,-0.237084 1.35755,-0.711244 0.30992,-0.474168 0.46489,-1.075332 0.46489,-1.80351 V 10.98762 c 0,-0.719715 -0.15497,-1.318764 -0.46489,-1.797163 -0.31086,-0.4784 -0.76739,-0.717591 -1.37054,-0.717591 -0.60315,0 -1.05783,0.239191 -1.36312,0.717591 -0.30622,0.478399 -0.45932,1.077448 -0.45932,1.797163 z"
     fill="#999591"
     id="path40" />
  <path
     style="stroke-width:0.927923"
     d="m 124.76681,13.686529 1.03835,-0.177808 V 8.599871 L 124.76681,8.422062 V 7.615559 h 2.16577 l 0.0835,0.895408 c 0.22084,-0.325989 0.50479,-0.577892 0.85368,-0.7557 0.34798,-0.177809 0.75162,-0.266713 1.21094,-0.266713 0.4584,0 0.85091,0.105839 1.17847,0.317516 0.33126,0.211678 0.57995,0.529204 0.74512,0.952559 0.21713,-0.389486 0.50386,-0.69854 0.86018,-0.927152 0.35725,-0.228622 0.77296,-0.342923 1.24899,-0.342923 0.70522,0 1.26197,0.241315 1.66933,0.723946 0.40828,0.478391 0.61243,1.200222 0.61243,2.165484 v 3.130737 l 1.03834,0.177808 v 0.800157 h -3.33866 v -0.800157 l 1.03834,-0.177808 v -3.14344 c 0,-0.677374 -0.11692,-1.155774 -0.35075,-1.43519 -0.23384,-0.283648 -0.57995,-0.425481 -1.03835,-0.425481 -0.43798,0 -0.79059,0.154527 -1.05783,0.463581 -0.26353,0.304823 -0.41664,0.690078 -0.45839,1.155774 v 3.384756 l 1.03834,0.177808 v 0.800157 h -3.33217 v -0.800157 l 1.03835,-0.177808 v -3.14344 c 0,-0.643505 -0.12156,-1.113433 -0.36375,-1.409793 -0.23755,-0.300582 -0.58366,-0.450878 -1.03834,-0.450878 -0.38231,0 -0.69687,0.07833 -0.94277,0.234969 -0.24683,0.156643 -0.4352,0.376792 -0.56696,0.66044 v 4.108702 l 1.03834,0.177808 v 0.800157 h -3.33217 z"
     fill="#999591"
     id="path42" />
  <path
     style="stroke-width:0.927923"
     d="m 140.43478,14.620047 c -0.95947,0 -1.72408,-0.317526 -2.29382,-0.952568 -0.5651,-0.639274 -0.84719,-1.466934 -0.84719,-2.483 v -0.279416 c 0,-0.977966 0.29044,-1.790807 0.87317,-2.438553 0.58552,-0.651968 1.27868,-0.977956 2.07669,-0.977956 0.92607,0 1.62665,0.279416 2.10268,0.838248 0.47973,0.558832 0.72006,1.303945 0.72006,2.235338 v 0.781097 h -4.47258 l -0.0195,0.03175 c 0.013,0.660439 0.18094,1.204462 0.50386,1.632048 0.32199,0.423365 0.77482,0.635043 1.35662,0.635043 0.42499,0 0.79616,-0.05927 1.11537,-0.177809 0.32291,-0.122773 0.60129,-0.290003 0.8342,-0.501681 l 0.49087,0.812851 c -0.2459,0.237075 -0.57345,0.438174 -0.98081,0.603279 -0.40365,0.160874 -0.88988,0.241325 -1.45963,0.241325 z m -0.19115,-6.147181 c -0.42035,0 -0.77945,0.177809 -1.07639,0.533426 -0.29786,0.351395 -0.48066,0.7938 -0.5484,1.327235 l 0.013,0.03175 h 3.17906 v -0.165115 c 0,-0.491093 -0.13176,-0.901755 -0.39436,-1.231975 -0.26353,-0.33022 -0.65419,-0.495325 -1.1729,-0.495325 z"
     fill="#999591"
     id="path44" />
  <rect
     style="stroke-width:0.927923"
     x="7.0867386"
     y="103.66805"
     width="213.45282"
     height="1.8579422"
     fill="#ff9000"
     id="rect46" />
  <rect
     style="stroke-width:0.927923"
     x="7.0867386"
     y="29.350262"
     width="213.45282"
     height="1.8579422"
     fill="#ff9000"
     id="rect48" />
  <path
     style="stroke-width:0.927923"
     d="m 56.525805,65.372031 v 13.057634 c 0,1.109796 -0.226134,2.167535 -0.678589,3.17331 -0.417565,0.971071 -0.991764,1.82077 -1.722503,2.549096 -0.730739,0.728327 -1.600759,1.300577 -2.609875,1.71675 -0.974412,0.450877 -2.018325,0.67627 -3.131924,0.67627 -1.1136,0 -2.157513,-0.20804 -3.131925,-0.624214 -0.974319,-0.416173 -1.826894,-0.971071 -2.557726,-1.664693 -0.730739,-0.728326 -1.322289,-1.560673 -1.774652,-2.497132 -0.417658,-0.971071 -0.643792,-2.011551 -0.678589,-3.121346 v -9.624135 c -0.104392,-1.075091 -0.591644,-1.855474 -1.461571,-2.340963 0.487159,-0.242838 0.974318,-0.36421 1.461571,-0.36421 V 54.031147 c 0.0348,-1.109795 0.260931,-2.150275 0.678589,-3.121346 0.452363,-0.971071 1.043913,-1.803418 1.774652,-2.497133 0.730832,-0.728233 1.583407,-1.300483 2.557726,-1.716656 0.974412,-0.416266 2.018325,-0.624307 3.131925,-0.624307 1.113599,0 2.157512,0.225393 3.131924,0.67627 1.009116,0.416174 1.879136,0.988423 2.609875,1.71675 0.730739,0.728326 1.304938,1.595377 1.722503,2.601152 0.452455,0.971071 0.678589,2.02881 0.678589,3.17331 0,0.589602 0.05224,1.023128 0.156634,1.300577 0.139188,0.277448 0.278377,0.502934 0.417565,0.676269 0.139188,0.173429 0.261025,0.329506 0.365416,0.46823 0.139188,0.138725 0.208782,0.364117 0.208782,0.67627 h -2.714359 c -0.556753,-0.06932 -0.83513,-0.364117 -0.83513,-0.88431 0,0.520193 -0.278377,0.814994 -0.835223,0.88431 h -2.766416 c 0,-0.312153 0.05215,-0.537545 0.156541,-0.67627 0.139188,-0.138724 0.278377,-0.294801 0.417565,-0.46823 0.139188,-0.173335 0.261025,-0.398821 0.365416,-0.676269 0.139188,-0.277449 0.208782,-0.728327 0.208782,-1.35254 v -0.05206 c 0,-0.450878 -0.01735,-0.988423 -0.05215,-1.612729 -0.0348,-0.658918 -0.156633,-1.283225 -0.365416,-1.872734 -0.208782,-0.589602 -0.539401,-1.092536 -0.991763,-1.508709 -0.452363,-0.416173 -1.078803,-0.624214 -1.879136,-0.624214 -0.835131,0 -1.478924,0.225393 -1.931379,0.67627 -0.417565,0.416174 -0.730739,0.919015 -0.939521,1.508617 -0.208783,0.589602 -0.330619,1.213908 -0.365416,1.872826 -0.0348,0.658918 -0.05215,1.213816 -0.05215,1.664693 v 12.069211 c 0.487159,0 0.974318,0.121372 1.461478,0.36421 -0.869928,0.485489 -1.357087,1.265872 -1.461478,2.340963 v 9.416094 c 0,0.450878 0.01735,1.005776 0.05215,1.664694 0.0348,0.624306 0.156633,1.248519 0.365416,1.872826 0.208782,0.589602 0.521956,1.092443 0.939521,1.508616 0.452455,0.416174 1.096248,0.624307 1.931379,0.624307 0.83513,0 1.46157,-0.208133 1.879136,-0.624307 0.452362,-0.416173 0.782981,-0.919014 0.991763,-1.508616 0.208783,-0.624307 0.330619,-1.24852 0.365416,-1.872826 0.0348,-0.658918 0.05215,-1.213816 0.05215,-1.664694 V 67.765051 c -0.382768,0.0347 -0.713386,0.190781 -0.991763,0.46823 -0.24358,0.277449 -0.365416,0.606861 -0.365416,0.988423 v 0.05196 c -0.0348,0.520286 -0.173986,0.971071 -0.417565,1.352632 -0.208783,0.346765 -0.521957,0.658918 -0.939522,0.936367 -0.417565,0.242745 -1.026561,0.36421 -1.826987,0.36421 V 65.372031 Z M 43.058679,63.863322 c 0,-0.20804 -0.01735,-0.416173 -0.05215,-0.624214 0,-0.208133 0,-0.398821 0,-0.572249 v -1.196557 c -0.0348,-0.762938 -0.05224,-1.491264 -0.05224,-2.184886 0,-0.693622 -0.01735,-1.352633 -0.05215,-1.976846 -0.0348,-0.312154 -0.05224,-0.589602 -0.05224,-0.832347 0,-0.277542 -0.01735,-0.554991 -0.05215,-0.832439 0,-0.242745 -0.01745,-0.468137 -0.05224,-0.67627 0,-0.242745 0,-0.450878 0,-0.624214 0,-0.173429 -0.01735,-0.329505 -0.05224,-0.46823 0,-0.138724 0,-0.260096 0,-0.364209 v -0.260097 c -0.0348,0 -0.05215,0.01735 -0.05215,0.05206 v 0.208041 c 0,0.104113 -0.01745,0.225485 -0.05224,0.364209 0,0.138725 0,0.294801 0,0.46823 0,0.173336 -0.01735,0.381469 -0.05215,0.624214 0,0.208133 0,0.433525 0,0.67627 -0.0348,0.277448 -0.05224,0.554897 -0.05224,0.832439 0,0.242745 -0.01735,0.520193 -0.05215,0.832347 -0.0348,0.624213 -0.05224,1.283224 -0.05224,1.976846 0,0.693622 -0.01735,1.421948 -0.05215,2.184886 v 1.196557 c 0,0.173428 -0.01744,0.364116 -0.05224,0.572249 0,0.208041 0,0.416174 0,0.624214 v 4.838096 c 0,0.104113 0,0.208133 0,0.312153 0.0348,0.10402 0.05224,0.190781 0.05224,0.260097 v 1.768806 c 0,0.381469 0,0.762938 0,1.144499 0.0348,0.346765 0.05215,0.693622 0.05215,1.040387 0,0.381562 0,0.745679 0,1.092536 0.0348,0.312061 0.05224,0.606862 0.05224,0.88431 0.0348,0.312154 0.05215,0.606955 0.05215,0.884403 0,0.277449 0.01744,0.537546 0.05224,0.780383 0,0.277449 0,0.520194 0,0.728327 0.0348,0.20804 0.05215,0.398821 0.05215,0.572157 0,0.173429 0,0.329505 0,0.46823 0.0348,0.138724 0.05224,0.260096 0.05224,0.364209 v 0.260097 c 0,0.0347 0.01735,0.05196 0.05215,0.05196 v -0.312061 c 0,-0.104113 0,-0.225485 0,-0.364209 0.03489,-0.138725 0.05224,-0.294801 0.05224,-0.46823 0,-0.173336 0,-0.364117 0,-0.572157 0.0348,-0.208133 0.05224,-0.450878 0.05224,-0.728327 0.0348,-0.242837 0.05215,-0.502934 0.05215,-0.780383 0,-0.277448 0.01745,-0.572249 0.05224,-0.884403 0,-0.277448 0,-0.572249 0,-0.88431 0.0348,-0.346857 0.05215,-0.710974 0.05215,-1.092536 0,-0.346765 0,-0.693622 0,-1.040387 0.0348,-0.381561 0.05224,-0.76303 0.05224,-1.144499 v -1.1445 c 0,-0.277449 0.01735,-0.485582 0.05215,-0.624306 z m 11.379208,7.543268 c -0.0348,-0.346764 -0.05215,-0.658917 -0.05215,-0.936366 0,-0.312153 -0.01745,-0.606954 -0.05224,-0.884403 -0.0348,-0.520194 -0.08704,-0.953719 -0.156634,-1.300577 0,-0.06932 -0.01735,-0.138724 -0.05215,-0.20804 0,-0.06941 0,-0.121372 0,-0.156076 v -0.156077 l -0.05224,0.05206 v 0.104021 c 0,0.0347 -0.01735,0.08667 -0.05215,0.156076 0,0.06932 0,0.138725 0,0.20804 -0.06959,0.346858 -0.121837,0.780383 -0.156634,1.300577 -0.0348,0.277449 -0.05215,0.57225 -0.05215,0.884403 0,0.277449 -0.01745,0.589602 -0.05224,0.936366 v 0.520287 c 0,0.10402 -0.01735,0.20804 -0.05215,0.31206 0,0.06941 0,0.138724 0,0.208133 v 2.184887 c 0,0.104112 0.01735,0.19078 0.05215,0.260189 v 0.78029 c 0,0.173429 0,0.329505 0,0.46823 0.0348,0.138724 0.05224,0.294801 0.05224,0.468137 0,0.173429 0,0.329505 0,0.46823 0.0348,0.138724 0.05215,0.277448 0.05215,0.416173 0.0348,0.138724 0.05224,0.277449 0.05224,0.416173 0,0.104113 0.01735,0.208133 0.05215,0.312153 0,0.10402 0,0.208133 0,0.312153 0.0348,0.104021 0.05224,0.190781 0.05224,0.260097 0,0.06941 0,0.138725 0,0.208133 0.0348,0.06932 0.05215,0.121373 0.05215,0.155984 v 0.104113 c 0,0.0347 0.01745,0.05196 0.05224,0.05196 v -0.156077 c 0,-0.03461 0,-0.08667 0,-0.155984 0.0348,-0.06941 0.05215,-0.138724 0.05215,-0.208133 0,-0.06932 0,-0.156076 0,-0.260097 0.0348,-0.10402 0.05224,-0.208133 0.05224,-0.312153 0.0348,-0.10402 0.05215,-0.20804 0.05215,-0.312153 0,-0.138724 0.01744,-0.277449 0.05224,-0.416173 0,-0.138725 0,-0.277449 0,-0.416173 0.0348,-0.138725 0.05224,-0.294801 0.05224,-0.46823 0,-0.173336 0,-0.329413 0,-0.468137 0.0348,-0.138725 0.05215,-0.294801 0.05215,-0.46823 v -0.520193 c 0,-0.138725 0.01744,-0.225485 0.05224,-0.260097 V 72.44707 c 0,-0.06941 -0.01745,-0.138724 -0.05224,-0.208133 0,-0.10402 0,-0.20804 0,-0.31206 z"
     fill="#f4ede8"
     id="path50" />
  <path
     style="stroke-width:0.927923"
     d="m 75.488461,66.360455 c 0.59155,0 1.07871,0.121372 1.461478,0.364116 -0.382768,0.242838 -0.713294,0.57225 -0.991764,0.988423 -0.24358,0.416174 -0.40012,0.867051 -0.469714,1.352633 v 7.855329 c -0.0348,1.109888 -0.27847,2.150275 -0.730832,3.121346 -0.417565,0.93646 -0.991764,1.768806 -1.722503,2.497133 -0.730739,0.693622 -1.583314,1.248519 -2.557726,1.664693 -0.974319,0.416173 -2.018324,0.624306 -3.131924,0.624306 -1.113507,0 -2.157513,-0.208133 -3.131832,-0.624306 -0.974411,-0.416174 -1.826987,-0.971071 -2.557726,-1.664693 -0.730739,-0.728327 -1.322382,-1.560673 -1.774744,-2.497133 -0.417566,-0.971071 -0.643793,-2.011458 -0.67859,-3.121346 v -7.855329 c -0.104391,-1.075184 -0.591551,-1.855474 -1.461571,-2.341056 0.382861,-0.242744 0.87002,-0.364116 1.461571,-0.364116 V 56.320146 c 0.0348,-1.075184 0.261024,-2.098311 0.67859,-3.069382 0.452362,-0.971071 1.044005,-1.803418 1.774744,-2.49704 0.730739,-0.728326 1.583315,-1.300576 2.557726,-1.716749 0.974319,-0.416174 2.018325,-0.624307 3.131832,-0.624307 1.1136,0 2.157605,0.208133 3.131924,0.624307 0.974412,0.416173 1.826987,0.988423 2.557726,1.716749 0.730739,0.693622 1.304938,1.525969 1.722503,2.49704 0.452362,0.971071 0.696034,1.994198 0.730832,3.069382 z M 62.021334,64.487628 c 0,-0.173428 -0.01745,-0.329505 -0.05224,-0.468229 0,-0.173336 0,-0.346765 0,-0.520194 v -0.988423 c -0.0348,-0.658918 -0.05215,-1.283224 -0.05215,-1.872826 0,-0.589602 -0.01745,-1.1445 -0.05224,-1.664693 -0.0348,-0.242745 -0.05215,-0.485582 -0.05215,-0.728327 0,-0.242744 -0.01744,-0.468229 -0.05224,-0.67627 0,-0.208133 -0.01735,-0.398821 -0.05215,-0.57225 0,-0.173428 0,-0.329505 0,-0.468229 0,-0.173429 -0.01745,-0.312154 -0.05224,-0.416174 0,-0.138724 0,-0.242744 0,-0.312153 v -0.260096 c -0.0348,0 -0.05224,0.01735 -0.05224,0.05206 v 0.20804 c 0,0.06941 -0.01735,0.173429 -0.05215,0.312153 0,0.10402 0,0.242745 0,0.416174 0,0.138724 -0.01745,0.294801 -0.05224,0.468229 0,0.173429 0,0.364117 0,0.57225 -0.0348,0.208041 -0.05215,0.433526 -0.05215,0.67627 0,0.242745 -0.01745,0.485582 -0.05224,0.728327 -0.0348,0.520193 -0.05215,1.075091 -0.05215,1.664693 0,0.589602 -0.01744,1.213908 -0.05224,1.872826 v 0.988423 c 0,0.173429 -0.01735,0.346858 -0.05215,0.520194 0,0.138724 0,0.294801 0,0.468229 v 4.10977 c 0,0.242744 0.01735,0.416173 0.05215,0.520193 V 70.6263 c 0,0.312153 0,0.624214 0,0.936367 0.0348,0.312153 0.05224,0.606954 0.05224,0.884403 0,0.312153 0,0.606954 0,0.884403 0.0348,0.242745 0.05215,0.502841 0.05215,0.78029 0.0348,0.277449 0.05224,0.537546 0.05224,0.780383 0,0.20804 0.01735,0.416173 0.05215,0.624214 0,0.208133 0,0.398821 0,0.572249 0.0348,0.173429 0.05224,0.346858 0.05224,0.520194 0,0.173429 0,0.329505 0,0.46823 0.0348,0.10402 0.05215,0.19078 0.05215,0.260096 v 0.156077 c 0,0.0347 0.01745,0.05206 0.05224,0.05206 v -0.208133 c 0,-0.06932 0,-0.156076 0,-0.260096 0.0348,-0.138725 0.05224,-0.294801 0.05224,-0.46823 0,-0.173336 0,-0.346765 0,-0.520194 0.0348,-0.173428 0.05215,-0.364116 0.05215,-0.572249 0.0348,-0.208041 0.05224,-0.416174 0.05224,-0.624214 0,-0.242837 0.01735,-0.502934 0.05215,-0.780383 0,-0.277449 0,-0.537545 0,-0.78029 0.0348,-0.277449 0.05224,-0.57225 0.05224,-0.884403 0,-0.277449 0,-0.57225 0,-0.884403 0.0348,-0.312153 0.05215,-0.624214 0.05215,-0.936367 v -1.508709 c 0.0348,-0.10402 0.05224,-0.277449 0.05224,-0.520193 z m 8.612699,-7.959441 c 0,-0.450878 -0.01744,-1.005776 -0.05224,-1.664693 -0.0348,-0.658918 -0.15654,-1.283225 -0.365415,-1.872827 -0.208783,-0.589602 -0.539309,-1.092443 -0.991764,-1.508616 -0.417565,-0.450878 -1.043913,-0.67627 -1.879136,-0.67627 -0.835131,0 -1.478923,0.225392 -1.931286,0.67627 -0.417565,0.416173 -0.730739,0.919014 -0.939614,1.508616 -0.208783,0.589602 -0.330526,1.213909 -0.365323,1.872827 -0.0348,0.658917 -0.05224,1.213815 -0.05224,1.664693 v 9.832268 c 0.591643,0 1.078803,0.121372 1.461571,0.364116 -0.869928,0.485582 -1.35718,1.265872 -1.461571,2.341056 v 7.647289 c 0,0.450877 0.01744,1.005775 0.05224,1.664693 0.0348,0.624306 0.15654,1.24852 0.365323,1.872826 0.208875,0.589602 0.522049,1.092443 0.939614,1.508617 0.452363,0.416173 1.096155,0.624306 1.931286,0.624306 0.835223,0 1.461571,-0.208133 1.879136,-0.624306 0.452455,-0.416174 0.782981,-0.919015 0.991764,-1.508617 0.208875,-0.624306 0.330618,-1.24852 0.365415,-1.872826 0.0348,-0.658918 0.05224,-1.213816 0.05224,-1.664693 v -7.647289 c -0.06959,-1.040479 -0.556846,-1.820769 -1.46157,-2.341056 0.382768,-0.242744 0.869927,-0.364116 1.46157,-0.364116 z m 2.818658,7.959441 c 0,-0.173428 0,-0.329505 0,-0.468229 0,-0.173336 -0.01735,-0.346765 -0.05215,-0.520194 v -0.988423 c 0,-0.658918 -0.01744,-1.283224 -0.05224,-1.872826 0,-0.589602 -0.01735,-1.1445 -0.05224,-1.664693 -0.0348,-0.242745 -0.05215,-0.485582 -0.05215,-0.728327 0,-0.242744 -0.01744,-0.468229 -0.05224,-0.67627 0,-0.208133 -0.01735,-0.398821 -0.05215,-0.57225 0,-0.173428 0,-0.329505 0,-0.468229 0,-0.173429 -0.01744,-0.312154 -0.05224,-0.416174 0,-0.138724 0,-0.242744 0,-0.312153 v -0.260096 c -0.0348,0 -0.05215,0.01735 -0.05215,0.05206 v 0.20804 c 0,0.06941 0,0.173429 0,0.312153 0,0.10402 -0.01745,0.242745 -0.05224,0.416174 0,0.138724 -0.01735,0.294801 -0.05215,0.468229 0,0.173429 0,0.364117 0,0.57225 -0.0348,0.208041 -0.05224,0.433526 -0.05224,0.67627 0,0.242745 -0.01735,0.485582 -0.05215,0.728327 -0.0348,0.520193 -0.05224,1.075091 -0.05224,1.664693 0,0.589602 -0.01735,1.213908 -0.05215,1.872826 v 1.976846 c -0.0348,0.346858 -0.05224,0.693622 -0.05224,1.04048 0,0.346765 0,0.693622 0,1.040387 0,0.346857 0,0.693622 0,1.040479 0,0.312154 0.01745,0.641566 0.05224,0.988424 V 70.6263 c 0,0.312153 0,0.624214 0,0.936367 0.0348,0.312153 0.05215,0.606954 0.05215,0.884403 0,0.312153 0,0.606954 0,0.884403 0.0348,0.242745 0.05224,0.502841 0.05224,0.78029 0.0348,0.277449 0.05215,0.537546 0.05215,0.780383 0,0.20804 0.01744,0.416173 0.05224,0.624214 0,0.208133 0,0.398821 0,0.572249 0.0348,0.173429 0.05215,0.346858 0.05215,0.520194 0.0348,0.173429 0.05224,0.329505 0.05224,0.46823 0,0.10402 0,0.19078 0,0.260096 v 0.156077 c 0,0.0347 0.01735,0.05206 0.05215,0.05206 v -0.208133 c 0,-0.06932 0,-0.156076 0,-0.260096 0.0348,-0.138725 0.05224,-0.294801 0.05224,-0.46823 0,-0.173336 0,-0.346765 0,-0.520194 0.0348,-0.173428 0.05215,-0.364116 0.05215,-0.572249 0.0348,-0.208041 0.05224,-0.416174 0.05224,-0.624214 0,-0.242837 0.01735,-0.502934 0.05215,-0.780383 0,-0.277449 0,-0.537545 0,-0.78029 0.03489,-0.277449 0.05224,-0.57225 0.05224,-0.884403 0,-0.277449 0,-0.57225 0,-0.884403 0.0348,-0.312153 0.05224,-0.624214 0.05224,-0.936367 v -0.988423 c 0,-0.06941 0,-0.156076 0,-0.260097 0.0348,-0.104112 0.05215,-0.19078 0.05215,-0.260189 z"
     fill="#f4ede8"
     id="path52" />
  <path
     style="stroke-width:0.927923"
     d="m 94.858845,59.649533 c 0,1.560673 -0.382768,2.965269 -1.148397,4.213789 -0.765536,1.248613 -1.792097,2.219684 -3.079683,2.913306 0.626441,0.485489 1.200547,1.057739 1.722596,1.716749 0.521956,0.624214 0.956967,1.317836 1.304938,2.080867 0.382768,0.763031 0.678589,1.543321 0.887372,2.341056 0.208782,0.797642 0.313174,1.577932 0.313174,2.340963 v 3.329479 c -0.0348,1.109795 -0.261025,2.150182 -0.67859,3.121346 -0.417565,0.936367 -0.991764,1.768713 -1.722503,2.49704 -0.730832,0.693622 -1.583407,1.24852 -2.557726,1.664693 -0.974411,0.450877 -2.018324,0.67627 -3.131924,0.67627 h -4.906576 c -0.24358,0 -0.452455,-0.08667 -0.626441,-0.260097 -0.139188,-0.173429 -0.208782,-0.381469 -0.208782,-0.624213 0,0.242744 -0.08695,0.450784 -0.260932,0.624213 -0.174079,0.173429 -0.365416,0.260097 -0.574199,0.260097 h -2.766508 c 0,-0.312061 0.05215,-0.537546 0.15654,-0.67627 0.139282,-0.138725 0.27847,-0.294801 0.417658,-0.468137 0.139189,-0.138817 0.260932,-0.346858 0.365323,-0.624306 0.139189,-0.277449 0.208783,-0.710975 0.208783,-1.300577 V 68.961514 c -0.104391,-1.040386 -0.591551,-1.803417 -1.461478,-2.288906 0.452362,-0.277449 0.939522,-0.416174 1.461478,-0.416174 V 49.140995 c 0,-0.589602 -0.06959,-1.023035 -0.208783,-1.300576 -0.104391,-0.277449 -0.226134,-0.48549 -0.365323,-0.624214 -0.139188,-0.173429 -0.278376,-0.329505 -0.417658,-0.46823 -0.104391,-0.138724 -0.15654,-0.364117 -0.15654,-0.67627 h 2.766508 c 0.208783,0 0.40012,0.08667 0.574199,0.260097 0.173985,0.138724 0.260932,0.329505 0.260932,0.57225 0,-0.554898 0.278376,-0.832347 0.835223,-0.832347 h 4.906576 c 1.1136,0 2.157513,0.208041 3.131924,0.624307 0.974319,0.416173 1.826894,0.988423 2.557726,1.716656 0.730739,0.693715 1.304938,1.526062 1.722503,2.497133 0.417565,0.971071 0.643793,1.994198 0.67859,3.069289 z m -13.467126,3.849672 c 0,-0.242744 -0.01744,-0.46823 -0.05224,-0.67627 0,-0.242837 0,-0.46823 0,-0.67627 v -1.352633 c -0.0348,-0.901755 -0.05215,-1.751453 -0.05215,-2.549096 0,-0.797642 -0.01745,-1.543321 -0.05224,-2.236943 -0.0348,-0.381469 -0.05215,-0.728326 -0.05215,-1.040479 0,-0.312154 -0.01744,-0.606955 -0.05224,-0.884403 0,-0.277449 -0.01735,-0.537546 -0.05215,-0.780291 0,-0.277448 0,-0.502934 0,-0.676269 0,-0.208134 -0.01745,-0.398822 -0.05224,-0.57225 0,-0.173429 0,-0.312154 0,-0.416174 v -0.312153 c -0.0348,0.0347 -0.05215,0.06932 -0.05215,0.10402 v 0.208133 c 0,0.10402 -0.01744,0.242745 -0.05224,0.416174 0,0.173428 0,0.364116 0,0.57225 0,0.173335 -0.01735,0.398821 -0.05215,0.676269 0,0.242745 0,0.502842 0,0.780291 -0.0348,0.277448 -0.05224,0.572249 -0.05224,0.884403 0,0.312153 -0.01735,0.65901 -0.05215,1.040479 -0.0348,0.693622 -0.05224,1.439301 -0.05224,2.236943 0,0.797643 -0.01735,1.647341 -0.05215,2.549096 v 1.352633 c 0,0.20804 0,0.433433 0,0.67627 0,0.20804 -0.01744,0.433526 -0.05224,0.67627 v 5.566422 c 0,0.138725 0,0.260097 0,0.364117 0.0348,0.10402 0.05224,0.225485 0.05224,0.36421 V 71.7708 c 0,0.450785 0,0.901662 0,1.35254 0.0348,0.416173 0.05215,0.814994 0.05215,1.196556 0,0.381469 0,0.762938 0,1.1445 0.0348,0.381469 0.05224,0.762938 0.05224,1.144407 0.0348,0.173429 0.05215,0.346857 0.05215,0.520286 0,0.138724 0,0.294801 0,0.46823 0,0.173336 0,0.329412 0,0.468137 0.0348,0.138724 0.05224,0.277449 0.05224,0.416173 0,0.277449 0,0.554898 0,0.832347 0.0348,0.242837 0.05215,0.468229 0.05215,0.676362 0,0.208041 0,0.398822 0,0.57225 0.0348,0.138725 0.05224,0.260097 0.05224,0.364117 v 0.260097 c 0,0.0347 0.01735,0.06941 0.05215,0.10402 v -0.364117 c 0,-0.10402 0,-0.225392 0,-0.364117 0.0348,-0.173428 0.05224,-0.364209 0.05224,-0.57225 0,-0.208133 0,-0.433525 0,-0.676362 0.0348,-0.277449 0.05215,-0.554898 0.05215,-0.832347 0.0348,-0.138724 0.05224,-0.277449 0.05224,-0.416173 0,-0.138725 0,-0.294801 0,-0.468137 0,-0.173429 0,-0.329506 0,-0.46823 0.0348,-0.173429 0.05215,-0.346857 0.05215,-0.520286 0,-0.381469 0,-0.762938 0,-1.144407 0.0348,-0.381562 0.05224,-0.763031 0.05224,-1.1445 0,-0.381562 0,-0.780383 0,-1.196556 0.0348,-0.450878 0.05215,-0.901755 0.05215,-1.35254 v -1.300576 c 0,-0.312153 0.01744,-0.537546 0.05224,-0.67627 z m 10.752767,14.046057 c -0.0348,0.10402 -0.05215,0.277449 -0.05215,0.520194 v 0.936459 c 0,0.173336 -0.01745,0.329413 -0.05224,0.468137 0,0.138725 0,0.277449 0,0.416173 0,0.138725 -0.01735,0.26019 -0.05215,0.36421 0,0.10402 0,0.20804 0,0.312153 v 0.156077 c -0.0348,0.03461 -0.05224,0.08667 -0.05224,0.155984 v 0.260189 c -0.0348,0.03461 -0.05215,0.06932 -0.05215,0.10402 v 0.10402 c 0,0.03471 -0.01745,0.06941 -0.05224,0.10402 0,0 0,0.01735 0,0.05206 0,0.0347 -0.01735,0.06941 -0.05215,0.10402 h 0.05215 c 0,0 0.01745,-0.03461 0.05224,-0.10402 0,0 0.01735,-0.0347 0.05215,-0.10402 0.0348,-0.0347 0.05224,-0.06941 0.05224,-0.104113 0.0348,-0.03461 0.05215,-0.06932 0.05215,-0.10402 0.0348,-0.03471 0.05224,-0.06932 0.05224,-0.10402 0.0348,-0.0347 0.05215,-0.08667 0.05215,-0.156077 0.06969,-0.06932 0.104484,-0.156077 0.104484,-0.260097 0.06959,-0.138724 0.139188,-0.381469 0.208782,-0.728326 0.06959,-0.208133 0.104392,-0.346858 0.104392,-0.416173 0.0348,-0.06941 0.05215,-0.138725 0.05215,-0.208133 0,-0.104021 0.01744,-0.190688 0.05224,-0.260097 0,-0.06932 0,-0.138725 0,-0.20804 0.0348,-0.104113 0.05215,-0.190781 0.05215,-0.260097 0.0348,-0.104113 0.05224,-0.26019 0.05224,-0.46823 0.0348,-0.173429 0.05215,-0.346857 0.05215,-0.520193 0,-0.173429 0.01744,-0.346858 0.05224,-0.520286 v -2.184887 c 0,-0.173429 -0.01744,-0.346857 -0.05224,-0.520286 0,-0.173336 -0.01735,-0.346765 -0.05215,-0.520194 0,-0.208133 -0.01745,-0.364116 -0.05224,-0.468229 0,-0.06932 -0.01735,-0.138725 -0.05215,-0.208041 0,-0.104112 0,-0.19078 0,-0.260096 -0.0348,-0.06941 -0.05224,-0.138725 -0.05224,-0.208133 0,-0.10402 -0.01735,-0.190781 -0.05215,-0.260097 0,-0.06941 -0.01745,-0.138724 -0.05224,-0.208133 0,-0.06932 0,-0.138724 0,-0.20804 -0.06959,-0.208133 -0.104392,-0.329506 -0.104392,-0.36421 -0.0348,-0.10402 -0.08695,-0.225392 -0.15654,-0.364117 0,-0.10402 -0.0348,-0.190781 -0.104484,-0.260096 0,-0.104021 -0.0348,-0.190781 -0.104392,-0.260097 -0.06959,-0.138725 -0.121743,-0.242837 -0.15654,-0.312153 -0.0348,-0.03471 -0.05224,-0.06941 -0.05224,-0.10402 h -0.05215 c 0,0 0.01735,0.03461 0.05215,0.10402 0,0.0347 0,0.06932 0,0.10402 0.0348,0 0.05224,0.01735 0.05224,0.05206 0,0.06932 0.01735,0.138725 0.05215,0.208041 v 0.260096 c 0.0348,0.06941 0.05224,0.156077 0.05224,0.26019 0,0.173336 0.01735,0.294801 0.05215,0.364117 v 0.364116 c 0.0348,0.138725 0.05224,0.277449 0.05224,0.416266 0,0.138725 0,0.294709 0,0.468137 v 0.46823 c 0,0.06932 0,0.156077 0,0.260097 0.0348,0.06941 0.05215,0.138724 0.05215,0.208133 z m -2.140068,-2.288999 c 0,-0.450878 -0.01744,-1.092443 -0.05224,-1.92479 -0.0348,-0.832347 -0.156541,-1.664786 -0.365323,-2.497132 -0.208783,-0.832347 -0.539402,-1.543321 -0.991764,-2.132923 -0.417658,-0.624214 -1.044006,-0.936367 -1.879136,-0.936367 h -1.879136 c -0.382768,0 -0.713387,0.138724 -0.991764,0.416173 -0.278377,0.277449 -0.417658,0.606954 -0.417658,0.988423 v 13.525864 c 0,0.381469 0.139281,0.710974 0.417658,0.988423 0.278377,0.242745 0.608996,0.381469 0.991764,0.416174 h 1.879136 c 0.83513,0 1.461478,-0.208133 1.879136,-0.624307 0.452362,-0.450877 0.782981,-0.971071 0.991764,-1.560673 0.208782,-0.589602 0.330526,-1.213815 0.365323,-1.872826 0.0348,-0.658918 0.05224,-1.213816 0.05224,-1.664693 z m 0,-21.069039 c 0,-0.450878 -0.01744,-0.988424 -0.05224,-1.61273 -0.0348,-0.658918 -0.156541,-1.283224 -0.365323,-1.872826 -0.208783,-0.589602 -0.539402,-1.092443 -0.991764,-1.508617 -0.417658,-0.450877 -1.044006,-0.67627 -1.879136,-0.67627 h -1.879136 c -0.382768,0 -0.713387,0.138725 -0.991764,0.416174 -0.278377,0.277448 -0.417658,0.606861 -0.417658,0.988423 v 13.994 c 0,0.381469 0.139281,0.710975 0.417658,0.988424 0.278377,0.277448 0.608996,0.416173 0.991764,0.416173 h 1.879136 c 0.83513,0 1.461478,-0.20804 1.879136,-0.624214 0.452362,-0.416173 0.782981,-0.919107 0.991764,-1.508709 0.208782,-0.624214 0.330526,-1.24852 0.365323,-1.872826 0.0348,-0.658918 0.05224,-1.213816 0.05224,-1.664693 z m 2.348943,6.866905 c 0.06959,-0.20804 0.104391,-0.346765 0.104391,-0.416173 0.06959,-0.138725 0.104392,-0.277449 0.104392,-0.416173 0.0348,-0.06932 0.05215,-0.138725 0.05215,-0.208041 0,-0.104113 0.01744,-0.190781 0.05224,-0.260189 0,-0.06932 0,-0.138725 0,-0.20804 0.0348,-0.104021 0.05215,-0.208133 0.05215,-0.312154 0.0348,-0.10402 0.05224,-0.277448 0.05224,-0.520193 0.0348,-0.173429 0.05215,-0.346857 0.05215,-0.520286 0,-0.173336 0.01744,-0.346765 0.05224,-0.520194 v -1.144499 c 0,-0.381469 0,-0.745679 0,-1.092444 0,-0.381469 -0.01744,-0.745678 -0.05224,-1.092443 -0.0348,-0.104113 -0.05215,-0.190781 -0.05215,-0.260189 0,-0.104021 -0.01745,-0.190688 -0.05224,-0.260097 0,-0.242745 -0.01735,-0.416173 -0.05215,-0.520194 -0.0348,-0.173428 -0.06959,-0.329505 -0.104391,-0.468229 0,-0.138725 -0.01745,-0.277449 -0.05224,-0.416174 -0.06959,-0.20804 -0.104392,-0.346764 -0.104392,-0.416173 -0.06959,-0.138724 -0.104391,-0.242744 -0.104391,-0.312153 -0.06959,-0.138724 -0.121744,-0.242745 -0.156633,-0.31206 0,-0.104113 -0.0348,-0.190781 -0.104392,-0.26019 -0.0348,-0.10402 -0.08695,-0.225392 -0.15654,-0.364117 l -0.104392,-0.10402 v 0.05196 c 0,0.0347 0,0.05206 0,0.05206 0.0348,0 0.05215,0.01735 0.05215,0.05206 0.0348,0.03461 0.05224,0.08667 0.05224,0.155984 0,0.06941 0.01735,0.138724 0.05215,0.208133 v 0.260096 c 0.0348,0.06941 0.05224,0.173429 0.05224,0.312153 0,0.06932 0,0.138725 0,0.208041 0.0348,0.0347 0.05215,0.08676 0.05215,0.156076 v 0.36421 c 0.0348,0.138724 0.05224,0.277449 0.05224,0.416173 0,0.138725 0,0.294801 0,0.46823 v 0.520193 c 0,0.06932 0,0.156077 0,0.260097 0.0348,0.06941 0.05215,0.138724 0.05215,0.208133 v 3.84958 c -0.0348,0.104113 -0.05215,0.277449 -0.05215,0.520286 v 0.988423 c 0,0.173429 -0.01745,0.329413 -0.05224,0.468137 0,0.138817 0,0.277542 0,0.416266 0,0.138725 -0.01735,0.277449 -0.05215,0.416173 0,0.104021 0,0.208041 0,0.312061 0,0.173429 -0.01744,0.277449 -0.05224,0.312153 v 0.312153 c -0.0348,0 -0.05215,0.0347 -0.05215,0.10402 v 0.104113 c 0,0.03461 -0.01745,0.06932 -0.05224,0.10402 0,0 0,0.01735 0,0.05196 0,0.0347 -0.01735,0.06941 -0.05215,0.104113 l 0.104392,-0.104113 c 0,-0.03461 0,-0.05196 0,-0.05196 0.0348,-0.0347 0.05215,-0.06941 0.05215,-0.10402 0.0348,0 0.05224,-0.0347 0.05224,-0.104113 0.0348,0 0.05215,-0.03461 0.05215,-0.10402 0.0348,0 0.05224,-0.0347 0.05224,-0.10402 0.0348,-0.0347 0.05215,-0.08676 0.05215,-0.156077 0.06969,-0.06941 0.104484,-0.156076 0.104484,-0.260096 0.06959,-0.208133 0.104391,-0.329506 0.104391,-0.36421 z"
     fill="#f4ede8"
     id="path54" />
  <path
     style="stroke-width:0.927923"
     d="m 114.60235,81.707088 c 0.13919,0.589509 0.296,1.023035 0.46953,1.300484 0.17445,0.277448 0.34797,0.502934 0.52242,0.676362 0.17352,0.173336 0.33034,0.329413 0.46953,0.468137 0.13918,0.138725 0.24404,0.36421 0.31363,0.676363 h -2.76706 c -0.24312,0 -0.46953,-0.08676 -0.67831,-0.260189 -0.17445,-0.173336 -0.27838,-0.381469 -0.31364,-0.624214 0.0353,0.242745 -0.0167,0.450878 -0.15589,0.624214 -0.13919,0.173428 -0.31364,0.260189 -0.52242,0.260189 H 109.174 c -0.0696,-0.312153 -0.052,-0.537638 0.052,-0.676363 0.10486,-0.138724 0.20879,-0.277449 0.31364,-0.416173 0.10393,-0.173429 0.19115,-0.398821 0.26075,-0.67627 0.0696,-0.312153 0.052,-0.78029 -0.052,-1.404596 v -0.05206 l -1.14876,-5.878482 c -0.0696,-0.346858 -0.26075,-0.641659 -0.57439,-0.884403 -0.31271,-0.277449 -0.66068,-0.416174 -1.04391,-0.416174 h -3.60127 c -0.38323,0 -0.7312,0.138725 -1.04391,0.416174 -0.31364,0.242744 -0.50479,0.537545 -0.57438,0.884403 l -1.09588,5.878482 v 0.05206 c -0.10486,0.624306 -0.13919,1.092443 -0.10486,1.404596 0.0696,0.277449 0.15682,0.502841 0.26075,0.67627 0.13919,0.138724 0.24404,0.277449 0.31364,0.416173 0.10392,0.138725 0.13919,0.36421 0.10392,0.676363 h -2.76623 c -0.24358,0 -0.43491,-0.08676 -0.574102,-0.260189 -0.139189,-0.173336 -0.191431,-0.381469 -0.156634,-0.624214 -0.0348,0.242745 -0.139188,0.450878 -0.313174,0.624214 -0.173985,0.173428 -0.382768,0.260189 -0.626347,0.260189 h -2.766509 c 0.0348,-0.312153 0.121744,-0.537638 0.260932,-0.676363 0.139188,-0.138724 0.295822,-0.294801 0.469807,-0.468137 0.173986,-0.173428 0.347971,-0.398914 0.521957,-0.676362 0.173985,-0.277449 0.330619,-0.710975 0.469807,-1.300484 L 98.10778,69.065627 c 0.0696,-0.485582 0.0173,-0.936459 -0.156633,-1.352633 -0.173986,-0.416173 -0.452362,-0.745585 -0.835131,-0.988423 0.556754,-0.242744 1.061354,-0.364116 1.513724,-0.364116 l 2.81838,-14.826441 c 0.10485,-0.589509 0.12248,-1.023034 0.0529,-1.300483 -0.0696,-0.312153 -0.15682,-0.537638 -0.26168,-0.676363 -0.10392,-0.173336 -0.20878,-0.329412 -0.31271,-0.468137 -0.10485,-0.138724 -0.12155,-0.364209 -0.052,-0.676363 h 3.49642 c 0.52242,0.06941 0.78316,0.36421 0.78316,0.884403 0,-0.242744 0.0696,-0.433525 0.20878,-0.572249 0.17445,-0.173429 0.36561,-0.277449 0.57439,-0.312154 h 3.5493 c 0.0696,0.312154 0.0529,0.537639 -0.052,0.676363 -0.0696,0.138725 -0.15682,0.294801 -0.26075,0.468137 -0.10485,0.138725 -0.19208,0.36421 -0.26167,0.676363 -0.0696,0.277449 -0.052,0.710974 0.0529,1.300483 l 2.76614,14.826441 c 0.27837,0 0.53912,0.0347 0.78316,0.10402 0.24312,0.06941 0.48716,0.156076 0.73028,0.260096 -0.76554,0.485582 -1.09588,1.265872 -0.99102,2.341056 z M 102.07447,63.083032 c 0.0696,-0.208133 0.10485,-0.398821 0.10485,-0.57225 0.0343,-0.208133 0.0696,-0.398821 0.10393,-0.57225 0.17445,-0.797642 0.31364,-1.543321 0.41756,-2.236943 0.10486,-0.728326 0.20878,-1.387244 0.31364,-1.976846 0.0696,-0.277449 0.10393,-0.554898 0.10393,-0.832347 0.0353,-0.277449 0.0696,-0.554897 0.10485,-0.832439 0.0343,-0.242745 0.0696,-0.468137 0.10393,-0.67627 0.0353,-0.20804 0.0696,-0.398821 0.10485,-0.57225 0.0343,-0.173336 0.052,-0.329412 0.052,-0.468137 0,-0.173429 0.0176,-0.312153 0.052,-0.416173 v -0.208133 l -0.052,0.208133 c -0.0343,0.10402 -0.0696,0.225392 -0.10392,0.364117 -0.0353,0.138724 -0.0696,0.294801 -0.10486,0.468229 -0.0696,0.173336 -0.12156,0.381469 -0.15682,0.624214 -0.0343,0.208133 -0.0863,0.416173 -0.15589,0.624306 -0.0696,0.277449 -0.13919,0.554898 -0.20878,0.832347 -0.0353,0.277449 -0.0872,0.554898 -0.15682,0.832346 -0.17445,0.589602 -0.34797,1.231168 -0.52242,1.924883 -0.13919,0.658918 -0.29508,1.387244 -0.46953,2.184887 0,0.208133 -0.0176,0.398821 -0.052,0.572249 -0.0353,0.173429 -0.0872,0.36421 -0.15682,0.57225 -0.0343,0.208133 -0.0696,0.416174 -0.10392,0.624307 -0.0353,0.173336 -0.0696,0.364116 -0.10486,0.57225 -0.10393,0.381468 -0.20878,0.78029 -0.31271,1.196463 -0.0696,0.416173 -0.13919,0.832346 -0.20878,1.24852 -0.0696,0.381562 -0.15682,0.780383 -0.26168,1.196556 -0.0696,0.416173 -0.13918,0.814994 -0.20878,1.196463 -0.0343,0.104113 -0.052,0.208133 -0.052,0.312154 0,0.06941 -0.0176,0.156076 -0.052,0.260096 -0.0696,0.277449 -0.10485,0.485582 -0.10485,0.624307 -0.10393,0.346857 -0.17371,0.728326 -0.20851,1.144499 -0.0696,0.381469 -0.13919,0.763031 -0.20878,1.1445 -0.0697,0.381469 -0.12184,0.728326 -0.15664,1.04048 -0.10439,0.797642 -0.20878,1.45656 -0.31317,1.976846 -0.0696,0.277449 -0.12184,0.554898 -0.15663,0.832346 -0.0348,0.277449 -0.0696,0.554898 -0.10439,0.832347 -0.0696,0.242745 -0.12175,0.485489 -0.15654,0.728326 0,0.208041 -0.0174,0.398822 -0.0522,0.57225 -0.0348,0.173336 -0.0521,0.329413 -0.0521,0.468137 0,0.138725 -0.0174,0.26019 -0.0522,0.36421 0,0.06932 -0.0173,0.121372 -0.0522,0.156077 0,0 0,0.01735 0,0.05196 v 0.05206 c 0.0349,0 0.0522,-0.01735 0.0522,-0.05206 0,-0.06932 0.0174,-0.138724 0.0522,-0.20804 0.0348,-0.06941 0.0521,-0.173429 0.0521,-0.312153 0.0348,-0.173429 0.087,-0.346858 0.15663,-0.520194 0.0696,-0.173428 0.12174,-0.364209 0.15654,-0.57225 0.0696,-0.208133 0.13919,-0.433525 0.20878,-0.676362 0.0696,-0.242745 0.12184,-0.502842 0.15663,-0.78029 0.0696,-0.277449 0.12175,-0.554898 0.15655,-0.832347 0.0696,-0.277449 0.13928,-0.57225 0.20887,-0.884403 0.10439,-0.346765 0.19134,-0.693622 0.26093,-1.04048 0.0696,-0.346764 0.13919,-0.710974 0.20879,-1.092443 0.10485,-0.381469 0.20878,-0.762938 0.31363,-1.1445 0.0343,-0.173428 0.0696,-0.346764 0.10393,-0.520193 0.0353,-0.208133 0.0696,-0.398821 0.10486,-0.57225 l 0.15589,-0.624306 c 0.0353,-0.10402 0.0529,-0.20804 0.0529,-0.312061 0,-0.104112 0.0167,-0.208133 0.052,-0.312153 0.0696,-0.381562 0.15682,-0.76303 0.26075,-1.144499 0.10485,-0.416174 0.19115,-0.832347 0.26074,-1.24852 0.0696,-0.381562 0.13919,-0.780383 0.20878,-1.196557 0.0696,-0.416173 0.13919,-0.814994 0.20879,-1.196556 0.0353,-0.20804 0.0696,-0.416173 0.10485,-0.624213 0.0343,-0.208133 0.0696,-0.398821 0.10393,-0.57225 z m 4.43732,8.895808 c 0.38231,-0.0347 0.67831,-0.173428 0.88709,-0.416173 0.24405,-0.277449 0.33035,-0.606954 0.26075,-0.988423 l -0.31271,-1.508617 c -0.13919,-0.485582 -0.38323,-0.936459 -0.7312,-1.352633 -0.31271,-0.416173 -0.69594,-0.745585 -1.14784,-0.988423 0.41756,-0.242744 0.86946,-0.364116 1.35662,-0.364116 l -1.67026,-8.895809 -1.67026,8.895809 c 0.45283,0 0.92235,0.121372 1.40951,0.364116 -0.48716,0.242838 -0.90472,0.57225 -1.25269,0.988423 -0.31364,0.416174 -0.52242,0.867051 -0.62635,1.352633 l -0.26075,1.508617 c -0.0696,0.381469 0,0.710974 0.20879,0.988423 0.20878,0.242745 0.48716,0.381469 0.83513,0.416173 z m 5.27153,7.283172 c 0,0.06932 0,0.121372 0,0.156077 0.0353,0 0.0529,0.01735 0.0529,0.05196 v -0.20804 c -0.0353,-0.10402 -0.0529,-0.225485 -0.0529,-0.36421 0,-0.138724 -0.0167,-0.294801 -0.052,-0.468137 -0.0343,-0.173428 -0.0696,-0.364209 -0.10393,-0.57225 0,-0.242837 -0.0353,-0.485581 -0.10486,-0.728326 -0.0343,-0.277449 -0.0696,-0.554898 -0.10392,-0.832347 -0.0353,-0.277448 -0.0872,-0.554897 -0.15682,-0.832346 -0.10486,-0.520286 -0.20879,-1.179204 -0.31364,-1.976846 -0.0696,-0.312154 -0.13919,-0.659011 -0.20878,-1.04048 -0.0343,-0.381469 -0.0863,-0.763031 -0.1559,-1.1445 -0.0696,-0.208133 -0.12248,-0.398821 -0.15681,-0.57225 0,-0.173428 -0.0353,-0.364116 -0.10486,-0.572249 0,-0.138725 -0.0343,-0.346858 -0.10393,-0.624307 0,-0.10402 -0.0176,-0.190688 -0.052,-0.260096 0,-0.104021 0,-0.208041 0,-0.312154 -0.0696,-0.381469 -0.15682,-0.78029 -0.26167,-1.196463 -0.0696,-0.416173 -0.13919,-0.814994 -0.20879,-1.196556 -0.0696,-0.416174 -0.15589,-0.832347 -0.26074,-1.24852 -0.0696,-0.416173 -0.15682,-0.814995 -0.26075,-1.196463 -0.0353,-0.208134 -0.0696,-0.398914 -0.10485,-0.57225 -0.0343,-0.208133 -0.0696,-0.416174 -0.10393,-0.624307 -0.0696,-0.20804 -0.12249,-0.398821 -0.15682,-0.57225 -0.0353,-0.173428 -0.0696,-0.364116 -0.10486,-0.572249 -0.17352,-0.797643 -0.34797,-1.525969 -0.52149,-2.184887 -0.13919,-0.693715 -0.26075,-1.335281 -0.3656,-1.924883 -0.0696,-0.277448 -0.13919,-0.554897 -0.20878,-0.832346 -0.0696,-0.277449 -0.13919,-0.554898 -0.20879,-0.832347 -0.0696,-0.208133 -0.13918,-0.416173 -0.20878,-0.624306 -0.0343,-0.242745 -0.0872,-0.450878 -0.15682,-0.624214 -0.0343,-0.173428 -0.0696,-0.329505 -0.10392,-0.468229 -0.0353,-0.138725 -0.0696,-0.260097 -0.10486,-0.364117 l -0.052,-0.208133 v 0.208133 c 0.0353,0.173336 0.0872,0.468137 0.15682,0.88431 0,0.173429 0.0176,0.36421 0.052,0.57225 0.0353,0.208133 0.0696,0.433525 0.10485,0.67627 0.0343,0.277542 0.0696,0.55499 0.10393,0.832439 0.0353,0.277449 0.0872,0.554898 0.15682,0.832347 0.10393,0.589602 0.20878,1.24852 0.31271,1.976846 0.10486,0.693622 0.22641,1.439301 0.3656,2.236943 0.0353,0.173429 0.052,0.364117 0.052,0.57225 0.0353,0.173429 0.0872,0.364117 0.15681,0.57225 0.0353,0.173429 0.0696,0.364117 0.10486,0.57225 0.0343,0.20804 0.0696,0.416173 0.10393,0.624213 0.0696,0.381562 0.13919,0.780383 0.20878,1.196556 0.10486,0.416174 0.19115,0.814995 0.26075,1.196557 0.0696,0.416173 0.15682,0.832346 0.26167,1.24852 0.10393,0.381469 0.19115,0.762937 0.26075,1.144499 0.0353,0.10402 0.052,0.208041 0.052,0.312153 0,0.104021 0.0176,0.208041 0.0529,0.312061 l 0.15589,0.624306 c 0.0353,0.173429 0.0696,0.364117 0.10486,0.57225 0.0343,0.173429 0.0696,0.346765 0.10393,0.520193 0.10485,0.381562 0.19208,0.763031 0.26167,1.1445 0.0696,0.381469 0.13919,0.745679 0.20878,1.092443 0.0696,0.346858 0.13919,0.693715 0.20878,1.04048 0.10393,0.312153 0.19116,0.606954 0.26075,0.884403 0.0696,0.277449 0.13919,0.554898 0.20878,0.832347 0.0696,0.277448 0.13919,0.537545 0.20879,0.78029 0.10392,0.485582 0.20878,0.901755 0.31271,1.248612 0.0696,0.173336 0.10485,0.346765 0.10485,0.520194 0.0343,0.138724 0.0696,0.242744 0.10393,0.312153 z"
     fill="#f4ede8"
     id="path56" />
  <path
     style="stroke-width:0.927923"
     d="m 136.50318,87.013321 c 0.38323,0.06941 0.64398,0.19078 0.78316,0.364209 0.17352,0.173336 0.29601,0.346765 0.3656,0.520194 0.0696,0.20804 0.10393,0.433525 0.10393,0.67627 -1.1135,0 -2.15742,-0.138725 -3.13174,-0.416174 -0.97432,-0.277449 -1.84471,-0.728326 -2.61024,-1.35254 -0.73028,-0.624306 -1.32229,-1.4393 -1.77419,-2.445076 -0.41757,-1.005775 -0.62635,-2.236943 -0.62635,-3.693596 v -7.127095 c 0,-0.450877 -0.0176,-1.005775 -0.0529,-1.664693 -0.0343,-0.658918 -0.15589,-1.283224 -0.36467,-1.872826 -0.20879,-0.589602 -0.54005,-1.092443 -0.99195,-1.508617 -0.41757,-0.450877 -1.04392,-0.67627 -1.87905,-0.67627 h -2.14071 c -0.31271,0.06932 -0.59109,0.242745 -0.83513,0.520194 -0.20879,0.242744 -0.31271,0.537545 -0.31271,0.884403 v 12.433328 c 0,0.624306 0.052,1.092443 0.15682,1.404596 0.13918,0.277449 0.27837,0.502841 0.41756,0.67627 0.13919,0.138724 0.26075,0.277449 0.36467,0.416173 0.13919,0.138725 0.20879,0.36421 0.20879,0.676363 h -2.76614 c -0.20878,0 -0.39994,-0.08676 -0.57438,-0.260189 -0.17353,-0.173336 -0.26075,-0.364117 -0.26075,-0.57225 0,0.208133 -0.0872,0.398914 -0.26075,0.57225 -0.13919,0.173428 -0.33127,0.260189 -0.57438,0.260189 h -2.71418 c 0,-0.312153 0.052,-0.537638 0.1559,-0.676363 0.13918,-0.138724 0.2793,-0.277449 0.41849,-0.416173 0.13919,-0.173429 0.26075,-0.398821 0.36467,-0.67627 0.13919,-0.277449 0.20879,-0.710974 0.20879,-1.300576 V 69.065627 c -0.10393,-1.075184 -0.59109,-1.855474 -1.46148,-2.341056 0.38323,-0.242744 0.87039,-0.364116 1.46148,-0.364116 V 51.482051 c 0,-0.589602 -0.0696,-1.023128 -0.20879,-1.300577 -0.10392,-0.277448 -0.22548,-0.485581 -0.36467,-0.624306 -0.13919,-0.173336 -0.27931,-0.329412 -0.41849,-0.468137 -0.10393,-0.138724 -0.1559,-0.364209 -0.1559,-0.676363 h 2.76614 c 0.20878,0 0.39994,0.08676 0.57439,0.26019 0.17352,0.138724 0.26074,0.329412 0.26074,0.57225 0,-0.554991 0.27838,-0.83244 0.83513,-0.83244 h 4.90686 c 1.1135,0 2.15742,0.208133 3.13174,0.624307 0.97431,0.416173 1.82708,0.988423 2.55828,1.716749 0.73027,0.693622 1.30466,1.525969 1.72222,2.49704 0.41757,0.971071 0.64398,1.994198 0.67831,3.069382 v 3.381443 c 0,1.456653 -0.34797,2.791841 -1.04391,4.005749 -0.69594,1.213816 -1.635,2.184887 -2.81903,2.913213 1.18403,0.693622 2.12309,1.664693 2.81903,2.913213 0.69594,1.213909 1.04391,2.549096 1.04391,4.005749 v 6.918962 c 0,0.728327 0,1.474005 0,2.237036 0.0353,0.728234 0.12156,1.404597 0.26075,2.02881 0.13919,0.589602 0.34797,1.092536 0.62635,1.508709 0.27838,0.416174 0.66161,0.67627 1.14877,0.780291 z m -4.75004,-28.196135 c -0.0353,0.06941 -0.052,0.156077 -0.052,0.260097 v 1.196556 c -0.0353,0.138724 -0.0529,0.277449 -0.0529,0.416173 0,0.10402 0,0.208041 0,0.312153 0,0.06932 -0.0167,0.121373 -0.052,0.156077 0,0.03461 0,0.08667 0,0.155984 v 0.312153 c -0.0343,0.06941 -0.052,0.156077 -0.052,0.260097 0,0.06941 -0.0176,0.138724 -0.052,0.208133 0,0.06932 -0.0176,0.121372 -0.0529,0.156076 v 0.10402 l -0.052,0.104021 c 0,0 0.0353,-0.01735 0.10485,-0.05196 v -0.05206 l 0.052,-0.05206 c 0.0343,-0.03461 0.052,-0.05196 0.052,-0.05196 0,-0.0347 0.0176,-0.06941 0.052,-0.10402 0.0353,-0.06941 0.0696,-0.138724 0.10485,-0.208133 0.0343,-0.10402 0.0696,-0.190781 0.10486,-0.260097 0.0343,-0.06941 0.052,-0.10402 0.052,-0.10402 0,-0.0347 0.0167,-0.08676 0.052,-0.156076 0.0353,-0.06941 0.052,-0.121373 0.052,-0.156077 0,-0.06941 0.0176,-0.138724 0.0529,-0.208133 0.0343,-0.06932 0.052,-0.121372 0.052,-0.156076 0,-0.03461 0.0176,-0.08667 0.052,-0.156077 0,-0.06932 0,-0.121372 0,-0.155984 0.0353,-0.06941 0.052,-0.138724 0.052,-0.208133 0.0353,-0.138724 0.0529,-0.277449 0.0529,-0.416173 0.0343,-0.138725 0.0696,-0.277449 0.10393,-0.416173 0.0353,-0.104021 0.052,-0.260097 0.052,-0.46823 0,-0.06932 0,-0.138725 0,-0.20804 0.0353,-0.06941 0.0529,-0.138725 0.0529,-0.208133 v -1.82077 c 0,-0.208133 -0.0176,-0.364117 -0.0529,-0.46823 v -0.20804 c 0,-0.06941 -0.0167,-0.104113 -0.052,-0.104113 0,-0.03461 0,-0.08667 0,-0.155984 0,-0.173429 -0.0343,-0.433525 -0.10393,-0.780383 -0.0353,-0.06932 -0.0529,-0.138724 -0.0529,-0.20804 0,-0.06941 -0.0167,-0.138724 -0.052,-0.208133 0,-0.0347 -0.0176,-0.05206 -0.052,-0.05206 0,-0.03461 0,-0.06932 0,-0.10402 0,-0.0347 -0.0176,-0.05196 -0.052,-0.05196 0,-0.03471 0,-0.06941 0,-0.104113 -0.0353,-0.06932 -0.0529,-0.121373 -0.0529,-0.156077 0,-0.03461 -0.0167,-0.08667 -0.052,-0.156076 -0.0353,-0.06932 -0.052,-0.121373 -0.052,-0.155984 0,-0.0347 -0.0176,-0.08676 -0.052,-0.156077 -0.0353,-0.0347 -0.0529,-0.06941 -0.0529,-0.104113 0,-0.03461 -0.0176,-0.06931 -0.052,-0.10402 -0.0696,-0.138724 -0.10485,-0.20804 -0.10485,-0.20804 -0.0343,-0.0347 -0.052,-0.05206 -0.052,-0.05206 0,-0.0347 -0.0176,-0.06941 -0.052,-0.10402 -0.0353,-0.0347 -0.052,-0.06941 -0.052,-0.104113 -0.0353,-0.03461 -0.0529,-0.06932 -0.0529,-0.10402 h -0.052 c 0,0 0.0176,0.0347 0.052,0.10402 V 53.1988 c 0.0353,0.03461 0.0529,0.10402 0.0529,0.208041 0,0.0347 0,0.06941 0,0.10402 0.0343,0 0.052,0.0347 0.052,0.104113 0,0.10402 0.0176,0.190688 0.052,0.260096 v 0.260097 c 0,0.06941 0,0.121372 0,0.156077 0.0353,0.0347 0.052,0.08667 0.052,0.156076 0,0.312153 0.0176,0.554898 0.0529,0.728327 v 0.832346 c 0.0343,0.173429 0.052,0.450878 0.052,0.832347 z m -10.75277,5.358289 c 0,-0.173429 -0.0176,-0.364117 -0.052,-0.57225 0,-0.20804 0,-0.416173 0,-0.624213 v -1.1445 c -0.0353,-0.763031 -0.0529,-1.491357 -0.0529,-2.184979 0,-0.693622 -0.0167,-1.35254 -0.052,-1.976847 -0.0343,-0.277448 -0.052,-0.554897 -0.052,-0.832346 0,-0.277449 -0.0176,-0.537546 -0.052,-0.780383 0,-0.277449 -0.0176,-0.520193 -0.0529,-0.728234 0,-0.208133 0,-0.398914 0,-0.57225 0,-0.173428 -0.0167,-0.329505 -0.052,-0.468229 0,-0.138725 0,-0.260097 0,-0.364117 v -0.26019 c -0.0343,0 -0.052,0.01735 -0.052,0.05206 v 0.208133 c 0,0.10402 -0.0176,0.225392 -0.052,0.364117 0,0.138724 0,0.294801 0,0.468229 0,0.173336 -0.0176,0.364117 -0.0529,0.57225 0,0.208041 0,0.450785 0,0.728234 -0.0343,0.242837 -0.052,0.502934 -0.052,0.780383 0,0.277449 -0.0176,0.554898 -0.052,0.832346 -0.0353,0.624307 -0.052,1.283225 -0.052,1.976847 0,0.693622 -0.0176,1.421948 -0.0529,2.184979 v 1.1445 c 0,0.20804 -0.0167,0.416173 -0.052,0.624213 0,0.208133 0,0.398821 0,0.57225 v 4.838096 c 0,0.277449 0.0176,0.485582 0.052,0.624306 v 1.71675 c 0,0.381469 0,0.762938 0,1.144499 0.0353,0.346765 0.0529,0.693623 0.0529,1.040387 0,0.381469 0,0.728327 0,1.04048 0.0343,0.312153 0.052,0.624213 0.052,0.936367 0.0343,0.312153 0.052,0.606954 0.052,0.884403 0,0.242744 0.0176,0.502841 0.052,0.78029 0,0.242837 0,0.468229 0,0.676362 0.0353,0.208041 0.0529,0.398822 0.0529,0.57225 0,0.173336 0,0.346765 0,0.520194 0.0343,0.138724 0.052,0.242744 0.052,0.312153 v 0.260097 c 0,0.0347 0.0176,0.05206 0.052,0.05206 v -0.312153 c 0,-0.06941 0,-0.173429 0,-0.312153 0.0353,-0.173429 0.052,-0.346858 0.052,-0.520194 0,-0.173428 0,-0.364209 0,-0.57225 0.0353,-0.208133 0.0529,-0.433525 0.0529,-0.676362 0.0343,-0.277449 0.052,-0.537546 0.052,-0.78029 0,-0.277449 0.0176,-0.57225 0.052,-0.884403 0,-0.312154 0,-0.624214 0,-0.936367 0.0353,-0.312153 0.052,-0.659011 0.052,-1.04048 0,-0.346764 0,-0.693622 0,-1.040387 0.0353,-0.381561 0.0529,-0.76303 0.0529,-1.144499 v -1.1445 c 0,-0.277449 0.0167,-0.46823 0.052,-0.57225 z m 8.61298,-7.647288 c 0,-0.450878 -0.0176,-1.005776 -0.0529,-1.664693 -0.0343,-0.658918 -0.15589,-1.283225 -0.36467,-1.872827 -0.20879,-0.589602 -0.54005,-1.092443 -0.99195,-1.508616 -0.41757,-0.450878 -1.04392,-0.67627 -1.87905,-0.67627 h -1.87904 c -0.38323,0.03461 -0.71357,0.190688 -0.99195,0.468137 -0.27838,0.277449 -0.41756,0.606954 -0.41756,0.988423 v 11.705094 c 0,0.381469 0.13918,0.710974 0.41756,0.988423 0.27838,0.277449 0.60872,0.416173 0.99195,0.416173 h 1.87904 c 0.83513,0 1.46148,-0.208133 1.87905,-0.624306 0.4519,-0.416173 0.78316,-0.919015 0.99195,-1.508617 0.20878,-0.624306 0.33034,-1.248519 0.36467,-1.872826 0.0353,-0.658918 0.0529,-1.213815 0.0529,-1.664693 z m 3.49734,28.508287 c 0,0 -0.0176,-0.01735 -0.0529,-0.05206 l -0.052,-0.05196 c -0.0343,-0.06941 -0.0696,-0.138724 -0.10393,-0.208133 0,-0.06932 -0.0353,-0.138724 -0.10486,-0.20804 -0.0343,-0.104113 -0.0696,-0.208133 -0.10392,-0.312153 -0.0353,-0.138725 -0.0696,-0.294801 -0.10486,-0.46823 -0.0696,-0.346765 -0.10393,-0.67627 -0.10393,-0.988423 -0.0353,-0.173429 -0.0529,-0.346765 -0.0529,-0.520194 0,-0.208133 0,-0.433525 0,-0.67627 v -2.757229 c 0,-0.242744 0,-0.485489 0,-0.728326 0,-0.242745 0.0176,-0.502842 0.0529,-0.78029 0,-0.242838 0,-0.485582 0,-0.728327 0,-0.242744 -0.0176,-0.485582 -0.0529,-0.728326 v -0.728327 c 0,-0.346764 -0.0167,-0.589602 -0.052,-0.728326 0,-0.242745 -0.0176,-0.468137 -0.052,-0.67627 0,-0.242745 -0.0176,-0.46823 -0.052,-0.67627 -0.0696,-0.485582 -0.13919,-0.901755 -0.20878,-1.24852 -0.0353,-0.173429 -0.0696,-0.329505 -0.10486,-0.46823 -0.0353,-0.173428 -0.0872,-0.346857 -0.15682,-0.520193 -0.0696,-0.173429 -0.12155,-0.312153 -0.15681,-0.416173 -0.0343,-0.104113 -0.0863,-0.208133 -0.1559,-0.312154 -0.0696,-0.104113 -0.12248,-0.19078 -0.15681,-0.260096 -0.0353,-0.06941 -0.0696,-0.138725 -0.10486,-0.208133 -0.0343,0 -0.0696,-0.01735 -0.10393,-0.05206 -0.0353,0 -0.052,-0.01726 -0.052,-0.05196 l 0.052,0.05196 c 0,0.0347 0.0176,0.06941 0.052,0.104113 0,0.03461 0,0.06932 0,0.10402 0.0353,0 0.052,0.03471 0.052,0.10402 0.0353,0.03471 0.0529,0.06941 0.0529,0.10402 0,0.0347 0.0167,0.08676 0.052,0.156077 0.0343,0.138725 0.0872,0.381562 0.15681,0.728327 0.0343,0.173428 0.052,0.346857 0.052,0.520286 0.0343,0.173336 0.0696,0.346764 0.10393,0.520193 0,0.173429 0,0.364117 0,0.57225 0.0353,0.173429 0.0529,0.381469 0.0529,0.624214 v 6.450825 c 0,0.138724 0,0.260096 0,0.364116 0.0343,0.104113 0.052,0.225486 0.052,0.36421 0,0.242745 0,0.485489 0,0.728327 0.0343,0.20804 0.0696,0.416173 0.10486,0.624213 0.0343,0.208133 0.052,0.416173 0.052,0.624306 0.0343,0.208041 0.0696,0.398822 0.10393,0.57225 0.0696,0.208041 0.12248,0.398821 0.15682,0.57225 0.0353,0.138725 0.0872,0.294801 0.15682,0.46823 0.0696,0.173336 0.12155,0.31206 0.15681,0.416173 0.0343,0.10402 0.0863,0.20804 0.1559,0.312061 l 0.10485,0.104112 c 0.0343,0.03461 0.052,0.06932 0.052,0.104021 0,0 0.0176,0.01735 0.052,0.05206 l 0.20878,0.20804 z"
     fill="#f4ede8"
     id="path58" />
  <path
     style="stroke-width:0.927923"
     d="m 152.15445,59.701589 c 0,1.456653 -0.34797,2.791841 -1.04392,4.005749 -0.69594,1.213816 -1.63592,2.184887 -2.81902,2.913213 1.1831,0.693622 2.12308,1.664693 2.81902,2.913213 0.69595,1.213909 1.04392,2.549096 1.04392,4.005749 v 3.381443 c -0.0343,1.109888 -0.26075,2.150275 -0.67831,3.121346 -0.41757,0.93646 -0.99195,1.768806 -1.72316,2.497133 -0.73027,0.693622 -1.58303,1.248519 -2.55735,1.664693 -0.97432,0.416173 -2.01823,0.624306 -3.13174,0.624306 h -4.95882 c -0.20878,0 -0.39993,-0.08676 -0.57438,-0.260189 -0.17352,-0.173336 -0.26075,-0.364117 -0.26075,-0.57225 0,0.208133 -0.0872,0.398914 -0.26074,0.57225 -0.13919,0.173428 -0.33127,0.260189 -0.57439,0.260189 h -2.71417 c 0,-0.312153 0.052,-0.537638 0.15589,-0.676363 0.13919,-0.138724 0.27838,-0.277449 0.41756,-0.416173 0.13919,-0.173429 0.26168,-0.398821 0.36561,-0.67627 0.13918,-0.277449 0.20878,-0.710974 0.20878,-1.300576 V 69.065627 c -0.10393,-1.075184 -0.59109,-1.855474 -1.46148,-2.341056 0.38323,-0.242744 0.87039,-0.364116 1.46148,-0.364116 V 51.482051 c 0,-0.589602 -0.0696,-1.023128 -0.20878,-1.300577 -0.10393,-0.277448 -0.22642,-0.485581 -0.36561,-0.624306 -0.13918,-0.173336 -0.27837,-0.329412 -0.41756,-0.468137 -0.10393,-0.138724 -0.15589,-0.364209 -0.15589,-0.676363 h 2.76613 c 0.20879,0 0.39994,0.08676 0.57439,0.26019 0.17352,0.138724 0.26075,0.329412 0.26075,0.57225 0,-0.554991 0.27837,-0.83244 0.83513,-0.83244 h 4.90685 c 1.11351,0 2.15742,0.208133 3.13174,0.624307 0.97432,0.416173 1.82708,0.988423 2.55735,1.716749 0.73121,0.693622 1.30559,1.525969 1.72316,2.49704 0.41756,0.971071 0.64397,1.994198 0.67831,3.069382 z m -13.46694,4.473886 c 0,-0.173429 -0.0176,-0.364117 -0.052,-0.57225 0,-0.20804 0,-0.416173 0,-0.624213 v -1.1445 c -0.0353,-0.763031 -0.0529,-1.491357 -0.0529,-2.184979 0,-0.693622 -0.0167,-1.35254 -0.052,-1.976847 -0.0343,-0.277448 -0.052,-0.554897 -0.052,-0.832346 0,-0.277449 -0.0176,-0.537546 -0.052,-0.780383 0,-0.277449 -0.0176,-0.520193 -0.0529,-0.728234 0,-0.208133 0,-0.398914 0,-0.57225 0,-0.173428 -0.0167,-0.329505 -0.052,-0.468229 0,-0.138725 0,-0.260097 0,-0.364117 v -0.26019 c -0.0343,0 -0.052,0.01735 -0.052,0.05206 v 0.208133 c 0,0.10402 -0.0176,0.225392 -0.052,0.364117 0,0.138724 0,0.294801 0,0.468229 0,0.173336 -0.0176,0.364117 -0.0529,0.57225 0,0.208041 0,0.450785 0,0.728234 -0.0343,0.242837 -0.052,0.502934 -0.052,0.780383 0,0.277449 -0.0176,0.554898 -0.052,0.832346 -0.0353,0.624307 -0.052,1.283225 -0.052,1.976847 0,0.693622 -0.0176,1.421948 -0.0529,2.184979 v 1.1445 c 0,0.20804 -0.0167,0.416173 -0.052,0.624213 0,0.208133 0,0.398821 0,0.57225 v 4.838096 c 0,0.277449 0.0176,0.485582 0.052,0.624306 v 1.71675 c 0,0.381469 0,0.762938 0,1.144499 0.0353,0.346765 0.0529,0.693623 0.0529,1.040387 0,0.381469 0,0.728327 0,1.04048 0.0343,0.312153 0.052,0.624213 0.052,0.936367 0.0343,0.312153 0.052,0.606954 0.052,0.884403 0,0.242744 0.0176,0.502841 0.052,0.78029 0,0.242837 0,0.468229 0,0.676362 0.0353,0.208041 0.0529,0.398822 0.0529,0.57225 0,0.173336 0,0.346765 0,0.520194 0.0343,0.138724 0.052,0.242744 0.052,0.312153 v 0.260097 c 0,0.0347 0.0176,0.05206 0.052,0.05206 v -0.312153 c 0,-0.06941 0,-0.173429 0,-0.312153 0.0353,-0.173429 0.052,-0.346858 0.052,-0.520194 0,-0.173428 0,-0.364209 0,-0.57225 0.0353,-0.208133 0.0529,-0.433525 0.0529,-0.676362 0.0343,-0.277449 0.052,-0.537546 0.052,-0.78029 0,-0.277449 0.0176,-0.57225 0.052,-0.884403 0,-0.312154 0,-0.624214 0,-0.936367 0.0353,-0.312153 0.052,-0.659011 0.052,-1.04048 0,-0.346764 0,-0.693622 0,-1.040387 0.0353,-0.381561 0.0529,-0.76303 0.0529,-1.144499 v -1.1445 c 0,-0.277449 0.0167,-0.46823 0.052,-0.57225 z m 10.75276,12.069211 c -0.0353,0.06941 -0.052,0.156077 -0.052,0.260097 v 1.196556 c -0.0353,0.138724 -0.0529,0.277449 -0.0529,0.416173 0,0.10402 0,0.20804 0,0.312153 0,0.06932 -0.0167,0.121373 -0.052,0.156077 0,0.03461 0,0.08667 0,0.155984 v 0.312153 c -0.0343,0.06941 -0.052,0.156076 -0.052,0.260097 0,0.06941 -0.0176,0.138724 -0.052,0.208133 0,0.06932 -0.0176,0.121372 -0.0529,0.156076 v 0.10402 l -0.052,0.10402 c 0,0 0.0353,-0.01726 0.10486,-0.05196 v -0.05206 l 0.052,-0.05206 c 0.0343,-0.03461 0.052,-0.05196 0.052,-0.05196 0,-0.0347 0.0176,-0.06941 0.052,-0.10402 0.0353,-0.06941 0.0696,-0.138724 0.10485,-0.208133 0.0343,-0.10402 0.0696,-0.190781 0.10393,-0.260097 0.0353,-0.06941 0.0529,-0.10402 0.0529,-0.10402 0,-0.0347 0.0167,-0.08676 0.052,-0.156076 0.0343,-0.06941 0.052,-0.121373 0.052,-0.156077 0,-0.0347 0.0176,-0.08676 0.052,-0.156077 0.0353,-0.06941 0.0529,-0.121372 0.0529,-0.156076 0,-0.06932 0.0167,-0.138725 0.052,-0.208133 0,-0.06932 0,-0.121372 0,-0.155984 0.0343,-0.06941 0.052,-0.138724 0.052,-0.208133 0.0353,-0.138724 0.052,-0.277449 0.052,-0.416173 0.0353,-0.138725 0.0696,-0.277449 0.10485,-0.416174 0.0343,-0.10402 0.052,-0.260096 0.052,-0.468229 0,-0.06932 0,-0.138725 0,-0.208041 0.0353,-0.06941 0.052,-0.138724 0.052,-0.208133 V 74.26784 c 0,-0.208041 -0.0167,-0.364117 -0.052,-0.46823 v -0.20804 c 0,-0.06941 -0.0176,-0.10402 -0.052,-0.10402 0,-0.03471 0,-0.06941 0,-0.104113 0,-0.173336 -0.0176,-0.312153 -0.052,-0.416174 0,-0.138724 -0.0176,-0.277448 -0.0529,-0.416173 -0.0343,-0.06932 -0.052,-0.138724 -0.052,-0.20804 0,-0.06941 -0.0176,-0.138725 -0.052,-0.208133 0,-0.0347 -0.0176,-0.05206 -0.052,-0.05206 0,-0.03461 0,-0.06932 0,-0.10402 0,-0.0347 -0.0176,-0.05196 -0.0529,-0.05196 0,-0.03471 0,-0.06941 0,-0.104113 -0.0343,-0.06932 -0.052,-0.121373 -0.052,-0.156077 0,-0.03461 -0.0176,-0.08667 -0.052,-0.156076 -0.0353,-0.06932 -0.052,-0.121373 -0.052,-0.155984 0,-0.0347 -0.0176,-0.08676 -0.0529,-0.156077 -0.0343,-0.0347 -0.052,-0.06941 -0.052,-0.104113 0,-0.03461 -0.0176,-0.06932 -0.052,-0.10402 -0.0696,-0.138724 -0.10485,-0.20804 -0.10485,-0.20804 -0.0343,-0.0347 -0.052,-0.05206 -0.052,-0.05206 0,-0.0347 -0.0176,-0.06941 -0.052,-0.10402 -0.0353,-0.0347 -0.052,-0.06941 -0.052,-0.104113 l -0.10486,-0.10402 c 0,0 0.0176,0.03471 0.052,0.10402 V 70.6263 c 0.0353,0.03461 0.0529,0.10402 0.0529,0.208041 0,0.0347 0,0.06941 0,0.104112 0.0343,0 0.052,0.03461 0.052,0.104021 0,0.10402 0.0176,0.190688 0.052,0.260096 v 0.260097 c 0,0.06941 0,0.121372 0,0.156077 0.0353,0.0347 0.052,0.08667 0.052,0.156076 0,0.312153 0.0176,0.554898 0.0529,0.728327 v 0.832346 c 0.0343,0.173429 0.052,0.450878 0.052,0.832347 z m -2.13979,-2.705173 c 0,-0.450877 -0.0176,-1.005775 -0.0529,-1.664693 -0.0343,-0.658918 -0.15589,-1.283224 -0.3656,-1.872826 -0.20878,-0.589602 -0.53912,-1.092443 -0.99102,-1.508617 -0.41757,-0.450877 -1.04391,-0.67627 -1.87904,-0.67627 h -1.87997 c -0.38231,0.03461 -0.71265,0.190688 -0.99103,0.468137 -0.27837,0.277449 -0.41756,0.606955 -0.41756,0.988424 v 11.705094 c 0,0.381469 0.13919,0.710974 0.41756,0.988423 0.27838,0.277449 0.60872,0.416173 0.99103,0.416173 h 1.87997 c 0.83513,0 1.46147,-0.208133 1.87904,-0.624306 0.4519,-0.416174 0.78224,-0.919015 0.99102,-1.508617 0.20971,-0.624306 0.33127,-1.24852 0.3656,-1.872826 0.0353,-0.658918 0.0529,-1.213816 0.0529,-1.664693 z m 0,-17.011326 c 0,-0.450878 -0.0176,-1.005776 -0.0529,-1.664693 -0.0343,-0.658918 -0.15589,-1.283225 -0.3656,-1.872827 -0.20878,-0.589602 -0.53912,-1.092443 -0.99102,-1.508616 -0.41757,-0.450878 -1.04391,-0.67627 -1.87904,-0.67627 h -1.87997 c -0.38231,0.03461 -0.71265,0.190688 -0.99103,0.468137 -0.27837,0.277449 -0.41756,0.606954 -0.41756,0.988423 v 11.705094 c 0,0.381469 0.13919,0.710974 0.41756,0.988423 0.27838,0.277449 0.60872,0.416173 0.99103,0.416173 h 1.87997 c 0.83513,0 1.46147,-0.208133 1.87904,-0.624306 0.4519,-0.416173 0.78224,-0.919015 0.99102,-1.508617 0.20971,-0.624306 0.33127,-1.248519 0.3656,-1.872826 0.0353,-0.658918 0.0529,-1.213815 0.0529,-1.664693 z m 2.24372,5.150248 c 0.0353,-0.06941 0.0529,-0.10402 0.0529,-0.10402 0,-0.0347 0.0167,-0.08676 0.052,-0.156076 0.0343,-0.06941 0.052,-0.121373 0.052,-0.156077 0,-0.06941 0.0176,-0.138724 0.052,-0.208133 0.0353,-0.06932 0.0529,-0.121372 0.0529,-0.156076 0,-0.03461 0.0167,-0.08667 0.052,-0.156077 0,-0.06932 0,-0.121372 0,-0.155984 0.0343,-0.06941 0.052,-0.138724 0.052,-0.208133 0.0353,-0.138724 0.052,-0.277449 0.052,-0.416173 0.0353,-0.138725 0.0696,-0.277449 0.10485,-0.416173 0.0343,-0.104021 0.052,-0.260097 0.052,-0.46823 0,-0.06932 0,-0.138725 0,-0.20804 0.0353,-0.06941 0.052,-0.138725 0.052,-0.208133 v -1.82077 c 0,-0.208133 -0.0167,-0.364117 -0.052,-0.46823 v -0.20804 c 0,-0.06941 -0.0176,-0.104113 -0.052,-0.104113 0,-0.03461 0,-0.08667 0,-0.155984 0,-0.173429 -0.0353,-0.433525 -0.10485,-0.780383 -0.0343,-0.06932 -0.052,-0.138724 -0.052,-0.20804 0,-0.06941 -0.0176,-0.138724 -0.052,-0.208133 0,-0.0347 -0.0176,-0.05206 -0.052,-0.05206 0,-0.03461 0,-0.06932 0,-0.10402 0,-0.0347 -0.0176,-0.05196 -0.0529,-0.05196 0,-0.03471 0,-0.06941 0,-0.104113 -0.0343,-0.06932 -0.052,-0.121373 -0.052,-0.156077 0,-0.03461 -0.0176,-0.08667 -0.052,-0.156076 -0.0353,-0.06932 -0.052,-0.121373 -0.052,-0.155984 0,-0.0347 -0.0176,-0.08676 -0.0529,-0.156077 -0.0343,-0.0347 -0.052,-0.06941 -0.052,-0.104113 0,-0.03461 -0.0176,-0.06931 -0.052,-0.10402 -0.0696,-0.138724 -0.10485,-0.20804 -0.10485,-0.20804 -0.0343,-0.0347 -0.052,-0.05206 -0.052,-0.05206 0,-0.0347 -0.0176,-0.06941 -0.052,-0.10402 -0.0353,-0.0347 -0.052,-0.06941 -0.052,-0.104113 -0.0353,-0.03461 -0.0529,-0.06932 -0.0529,-0.10402 h -0.052 c 0,0 0.0176,0.0347 0.052,0.10402 V 53.1988 c 0.0353,0.03461 0.0529,0.10402 0.0529,0.208041 0,0.0347 0,0.06941 0,0.10402 0.0343,0 0.052,0.0347 0.052,0.104113 0,0.10402 0.0176,0.190688 0.052,0.260096 v 0.260097 c 0,0.06941 0,0.121372 0,0.156077 0.0353,0.0347 0.052,0.08667 0.052,0.156076 0,0.312153 0.0176,0.554898 0.0529,0.728327 v 0.832346 c 0.0343,0.173429 0.052,0.450878 0.052,0.832347 v 1.976846 c -0.0353,0.06941 -0.052,0.156077 -0.052,0.260097 v 1.196556 c -0.0353,0.138724 -0.0529,0.277449 -0.0529,0.416173 0,0.10402 0,0.208041 0,0.312153 0,0.06932 -0.0167,0.121373 -0.052,0.156077 0,0.03461 0,0.08667 0,0.155984 v 0.312153 c -0.0343,0.06941 -0.052,0.156077 -0.052,0.260097 0,0.06941 -0.0176,0.138724 -0.052,0.208133 0,0.06932 -0.0176,0.121372 -0.0529,0.156076 v 0.10402 l -0.052,0.104021 c 0,0 0.0353,-0.01735 0.10486,-0.05196 v -0.05206 l 0.052,-0.05206 c 0.0343,-0.03461 0.052,-0.05196 0.052,-0.05196 0,-0.0347 0.0176,-0.06941 0.052,-0.10402 0.0353,-0.06941 0.0696,-0.138724 0.10485,-0.208133 0.0343,-0.10402 0.0696,-0.190781 0.10393,-0.260097 z"
     fill="#f4ede8"
     id="path60" />
  <path
     style="stroke-width:0.927923"
     d="m 169.94551,81.655032 c 0,0.624306 0.0529,1.092443 0.15682,1.404596 0.13918,0.277449 0.27837,0.502841 0.41756,0.67627 0.13919,0.138724 0.26075,0.277449 0.3656,0.416173 0.13919,0.138725 0.20879,0.36421 0.20879,0.676363 h -14.19815 c -0.20878,0 -0.39993,-0.08676 -0.57438,-0.260189 -0.17352,-0.173336 -0.26075,-0.364117 -0.26075,-0.57225 0,0.208133 -0.0872,0.398914 -0.26074,0.57225 -0.13919,0.173428 -0.33035,0.260189 -0.57439,0.260189 h -2.71417 c 0,-0.312153 0.052,-0.537638 0.15682,-0.676363 0.13918,-0.138724 0.27837,-0.277449 0.41756,-0.416173 0.13919,-0.173429 0.26075,-0.398821 0.3656,-0.67627 0.13919,-0.277449 0.20879,-0.710974 0.20879,-1.300576 V 69.065627 c -0.10486,-1.075184 -0.59202,-1.855474 -1.46241,-2.341056 0.38323,-0.242744 0.87039,-0.364116 1.46241,-0.364116 V 51.482051 c 0,-0.589602 -0.0696,-1.023128 -0.20879,-1.300577 -0.10485,-0.277448 -0.22641,-0.485581 -0.3656,-0.624306 -0.13919,-0.173336 -0.27838,-0.329412 -0.41756,-0.468137 -0.10486,-0.138724 -0.15682,-0.364209 -0.15682,-0.676363 h 2.76613 c 0.20879,0 0.40087,0.08676 0.57439,0.26019 0.17445,0.138724 0.26075,0.329412 0.26075,0.57225 0,-0.554991 0.27837,-0.83244 0.83513,-0.83244 h 14.14618 c 0,0.312154 -0.0696,0.537639 -0.20879,0.676363 -0.10485,0.138725 -0.22641,0.294801 -0.3656,0.468137 -0.13919,0.138725 -0.27838,0.36421 -0.41756,0.676363 -0.10393,0.277449 -0.15682,0.728234 -0.15682,1.35254 v 6.918962 c -1.21744,0 -2.15742,-0.225392 -2.8181,-0.67627 -0.62635,-0.485582 -1.09681,-1.023127 -1.40952,-1.61273 -0.38323,-0.658917 -0.59201,-1.439207 -0.62635,-2.340963 v -1.612729 c 0,-0.381469 -0.13918,-0.710974 -0.41756,-0.988423 -0.27838,-0.277449 -0.60872,-0.433526 -0.99195,-0.468137 h -3.75809 c -0.38323,0.03461 -0.71357,0.190688 -0.99195,0.468137 -0.27837,0.277449 -0.41756,0.606954 -0.41756,0.988423 v 11.705094 c 0,0.381469 0.13919,0.710974 0.41756,0.988423 0.27838,0.277449 0.60872,0.416173 0.99195,0.416173 h 0.3656 c 0.38231,0 0.69595,-0.138724 0.93906,-0.416173 0.27838,-0.277449 0.41757,-0.606954 0.41757,-0.988423 v -0.05206 c 0.0353,-0.520193 0.17445,-0.971071 0.41756,-1.35254 0.20879,-0.346857 0.52242,-0.65901 0.93999,-0.936459 0.41756,-0.277449 1.02628,-0.416173 1.82708,-0.416173 V 71.97884 c -0.8008,0 -1.40952,-0.138724 -1.82708,-0.416173 -0.41757,-0.277449 -0.7312,-0.589602 -0.93999,-0.936367 -0.24311,-0.381561 -0.3823,-0.832346 -0.41756,-1.352632 0,-0.381469 -0.13919,-0.710975 -0.41757,-0.988424 -0.24311,-0.277449 -0.55675,-0.433525 -0.93906,-0.468137 h -0.3656 c -0.38323,0.03461 -0.71357,0.190688 -0.99195,0.468137 -0.27837,0.277449 -0.41756,0.606955 -0.41756,0.988424 v 11.705094 c 0,0.381469 0.13919,0.710974 0.41756,0.988423 0.27838,0.277449 0.60872,0.416173 0.99195,0.416173 h 3.75809 c 0.38323,0 0.71357,-0.138724 0.99195,-0.416173 0.27838,-0.277449 0.41756,-0.606954 0.41756,-0.988423 v -1.664786 c 0.0343,-0.866958 0.24312,-1.629989 0.62635,-2.288907 0.31271,-0.589602 0.78317,-1.127148 1.40952,-1.61273 0.66068,-0.485581 1.60066,-0.728326 2.8181,-0.728326 z M 156.47857,64.175475 c 0,-0.173429 -0.0176,-0.364117 -0.052,-0.57225 0,-0.20804 0,-0.416173 0,-0.624213 v -1.1445 c -0.0353,-0.763031 -0.052,-1.491357 -0.052,-2.184979 0,-0.693622 -0.0176,-1.35254 -0.0529,-1.976847 -0.0343,-0.277448 -0.052,-0.554897 -0.052,-0.832346 0,-0.277449 -0.0176,-0.537546 -0.052,-0.780383 0,-0.277449 -0.0176,-0.520193 -0.052,-0.728234 0,-0.208133 0,-0.398914 0,-0.57225 0,-0.173428 -0.0176,-0.329505 -0.0529,-0.468229 0,-0.138725 0,-0.260097 0,-0.364117 v -0.26019 c -0.0343,0 -0.052,0.01735 -0.052,0.05206 v 0.208133 c 0,0.10402 -0.0176,0.225392 -0.052,0.364117 0,0.138724 0,0.294801 0,0.468229 0,0.173336 -0.0176,0.364117 -0.052,0.57225 0,0.208041 0,0.450785 0,0.728234 -0.0353,0.242837 -0.0529,0.502934 -0.0529,0.780383 0,0.277449 -0.0167,0.554898 -0.052,0.832346 -0.0343,0.624307 -0.052,1.283225 -0.052,1.976847 0,0.693622 -0.0176,1.421948 -0.052,2.184979 v 1.1445 c 0,0.20804 -0.0176,0.416173 -0.0529,0.624213 0,0.208133 0,0.398821 0,0.57225 v 4.838096 c 0,0.277449 0.0176,0.485582 0.0529,0.624306 v 1.71675 c 0,0.381469 0,0.762938 0,1.144499 0.0343,0.346765 0.052,0.693623 0.052,1.040387 0,0.381469 0,0.728327 0,1.04048 0.0343,0.312153 0.052,0.624213 0.052,0.936367 0.0353,0.312153 0.052,0.606954 0.052,0.884403 0,0.242744 0.0176,0.502841 0.0529,0.78029 0,0.242837 0,0.468229 0,0.676362 0.0343,0.208041 0.052,0.398822 0.052,0.57225 0,0.173336 0,0.346765 0,0.520194 0.0343,0.138724 0.052,0.242744 0.052,0.312153 v 0.260097 c 0,0.0347 0.0176,0.05206 0.052,0.05206 v -0.312153 c 0,-0.06941 0,-0.173429 0,-0.312153 0.0353,-0.173429 0.0529,-0.346858 0.0529,-0.520194 0,-0.173428 0,-0.364209 0,-0.57225 0.0343,-0.208133 0.052,-0.433525 0.052,-0.676362 0.0343,-0.277449 0.052,-0.537546 0.052,-0.78029 0,-0.277449 0.0176,-0.57225 0.052,-0.884403 0,-0.312154 0,-0.624214 0,-0.936367 0.0353,-0.312153 0.0529,-0.659011 0.0529,-1.04048 0,-0.346764 0,-0.693622 0,-1.040387 0.0343,-0.381561 0.052,-0.76303 0.052,-1.144499 v -1.1445 c 0,-0.277449 0.0176,-0.46823 0.052,-0.57225 z"
     fill="#f4ede8"
     id="path62" />
  <path
     style="stroke-width:0.927923"
     d="m 190.9444,87.013321 c 0.3823,0.06941 0.64397,0.19078 0.78316,0.364209 0.17352,0.173336 0.29508,0.346765 0.36468,0.520194 0.0696,0.20804 0.10485,0.433525 0.10485,0.67627 -1.11351,0 -2.15742,-0.138725 -3.13174,-0.416174 -0.97432,-0.277449 -1.84471,-0.728326 -2.61024,-1.35254 -0.73028,-0.624306 -1.32229,-1.4393 -1.77512,-2.445076 -0.41757,-1.005775 -0.62635,-2.236943 -0.62635,-3.693596 v -7.127095 c 0,-0.450877 -0.0167,-1.005775 -0.052,-1.664693 -0.0343,-0.658918 -0.15682,-1.283224 -0.3656,-1.872826 -0.20879,-0.589602 -0.53913,-1.092443 -0.99102,-1.508617 -0.41757,-0.450877 -1.04392,-0.67627 -1.87905,-0.67627 h -2.14071 c -0.31271,0.06932 -0.59109,0.242745 -0.83514,0.520194 -0.20878,0.242744 -0.31271,0.537545 -0.31271,0.884403 v 12.433328 c 0,0.624306 0.052,1.092443 0.1559,1.404596 0.13918,0.277449 0.27837,0.502841 0.41756,0.67627 0.13919,0.138724 0.26168,0.277449 0.3656,0.416173 0.13919,0.138725 0.20879,0.36421 0.20879,0.676363 h -2.76614 c -0.20878,0 -0.40086,-0.08676 -0.57439,-0.260189 -0.17445,-0.173336 -0.26074,-0.364117 -0.26074,-0.57225 0,0.208133 -0.0872,0.398914 -0.26168,0.57225 -0.13918,0.173428 -0.33034,0.260189 -0.57345,0.260189 h -2.71418 c 0,-0.312153 0.052,-0.537638 0.15589,-0.676363 0.13919,-0.138724 0.27838,-0.277449 0.41757,-0.416173 0.13919,-0.173429 0.26167,-0.398821 0.3656,-0.67627 0.13919,-0.277449 0.20878,-0.710974 0.20878,-1.300576 V 69.065627 c -0.10392,-1.075184 -0.59108,-1.855474 -1.46147,-2.341056 0.38323,-0.242744 0.87039,-0.364116 1.46147,-0.364116 V 51.482051 c 0,-0.589602 -0.0696,-1.023128 -0.20878,-1.300577 -0.10393,-0.277448 -0.22641,-0.485581 -0.3656,-0.624306 -0.13919,-0.173336 -0.27838,-0.329412 -0.41757,-0.468137 -0.10392,-0.138724 -0.15589,-0.364209 -0.15589,-0.676363 h 2.76614 c 0.20878,0 0.39994,0.08676 0.57439,0.26019 0.17352,0.138724 0.26074,0.329412 0.26074,0.57225 0,-0.554991 0.27838,-0.83244 0.83513,-0.83244 h 4.90686 c 1.1135,0 2.15742,0.208133 3.13174,0.624307 0.97431,0.416173 1.82707,0.988423 2.55735,1.716749 0.7312,0.693622 1.30559,1.525969 1.72315,2.49704 0.41757,0.971071 0.64305,1.994198 0.67831,3.069382 v 3.381443 c 0,1.456653 -0.34797,2.791841 -1.04391,4.005749 -0.69594,1.213816 -1.63593,2.184887 -2.81903,2.913213 1.1831,0.693622 2.12309,1.664693 2.81903,2.913213 0.69594,1.213909 1.04391,2.549096 1.04391,4.005749 v 6.918962 c 0,0.728327 0,1.474005 0,2.237036 0.0343,0.728234 0.12156,1.404597 0.26075,2.02881 0.13919,0.589602 0.34797,1.092536 0.62635,1.508709 0.27837,0.416174 0.66161,0.67627 1.14877,0.780291 z m -4.75004,-28.196135 c -0.0353,0.06941 -0.052,0.156077 -0.052,0.260097 v 1.196556 c -0.0353,0.138724 -0.0529,0.277449 -0.0529,0.416173 0,0.10402 0,0.208041 0,0.312153 0,0.06932 -0.0167,0.121373 -0.052,0.156077 0,0.03461 0,0.08667 0,0.155984 v 0.312153 c -0.0343,0.06941 -0.052,0.156077 -0.052,0.260097 0,0.06941 -0.0176,0.138724 -0.052,0.208133 0,0.06932 -0.0176,0.121372 -0.0529,0.156076 v 0.10402 l -0.052,0.104021 c 0,0 0.0353,-0.01735 0.10485,-0.05196 v -0.05206 l 0.052,-0.05206 c 0.0343,-0.03461 0.052,-0.05196 0.052,-0.05196 0,-0.0347 0.0176,-0.06941 0.052,-0.10402 0.0353,-0.06941 0.0696,-0.138724 0.10486,-0.208133 0.0343,-0.10402 0.0696,-0.190781 0.10393,-0.260097 0.0353,-0.06941 0.0529,-0.10402 0.0529,-0.10402 0,-0.0347 0.0167,-0.08676 0.052,-0.156076 0.0343,-0.06941 0.052,-0.121373 0.052,-0.156077 0,-0.06941 0.0176,-0.138724 0.052,-0.208133 0.0353,-0.06932 0.0529,-0.121372 0.0529,-0.156076 0,-0.03461 0.0167,-0.08667 0.052,-0.156077 0,-0.06932 0,-0.121372 0,-0.155984 0.0343,-0.06941 0.052,-0.138724 0.052,-0.208133 0.0353,-0.138724 0.052,-0.277449 0.052,-0.416173 0.0353,-0.138725 0.0696,-0.277449 0.10486,-0.416173 0.0343,-0.104021 0.052,-0.260097 0.052,-0.46823 0,-0.06932 0,-0.138725 0,-0.20804 0.0353,-0.06941 0.052,-0.138725 0.052,-0.208133 v -1.82077 c 0,-0.208133 -0.0167,-0.364117 -0.052,-0.46823 v -0.20804 c 0,-0.06941 -0.0176,-0.104113 -0.052,-0.104113 0,-0.03461 0,-0.08667 0,-0.155984 0,-0.173429 -0.0353,-0.433525 -0.10486,-0.780383 -0.0343,-0.06932 -0.052,-0.138724 -0.052,-0.20804 0,-0.06941 -0.0176,-0.138724 -0.052,-0.208133 0,-0.0347 -0.0176,-0.05206 -0.052,-0.05206 0,-0.03461 0,-0.06932 0,-0.10402 0,-0.0347 -0.0176,-0.05196 -0.0529,-0.05196 0,-0.03471 0,-0.06941 0,-0.104113 -0.0343,-0.06932 -0.052,-0.121373 -0.052,-0.156077 0,-0.03461 -0.0176,-0.08667 -0.052,-0.156076 -0.0353,-0.06932 -0.052,-0.121373 -0.052,-0.155984 0,-0.0347 -0.0176,-0.08676 -0.0529,-0.156077 -0.0343,-0.0347 -0.052,-0.06941 -0.052,-0.104113 0,-0.03461 -0.0176,-0.06931 -0.052,-0.10402 -0.0696,-0.138724 -0.10486,-0.20804 -0.10486,-0.20804 -0.0343,-0.0347 -0.052,-0.05206 -0.052,-0.05206 0,-0.0347 -0.0176,-0.06941 -0.052,-0.10402 -0.0353,-0.0347 -0.052,-0.06941 -0.052,-0.104113 -0.0353,-0.03461 -0.0529,-0.06932 -0.0529,-0.10402 h -0.052 c 0,0 0.0176,0.0347 0.052,0.10402 V 53.1988 c 0.0353,0.03461 0.0529,0.10402 0.0529,0.208041 0,0.0347 0,0.06941 0,0.10402 0.0343,0 0.052,0.0347 0.052,0.104113 0,0.10402 0.0176,0.190688 0.052,0.260096 v 0.260097 c 0,0.06941 0,0.121372 0,0.156077 0.0353,0.0347 0.052,0.08667 0.052,0.156076 0,0.312153 0.0176,0.554898 0.0529,0.728327 v 0.832346 c 0.0343,0.173429 0.052,0.450878 0.052,0.832347 z m -10.75277,5.358289 c 0,-0.173429 -0.0176,-0.364117 -0.0529,-0.57225 0,-0.20804 0,-0.416173 0,-0.624213 v -1.1445 c -0.0343,-0.763031 -0.052,-1.491357 -0.052,-2.184979 0,-0.693622 -0.0176,-1.35254 -0.052,-1.976847 -0.0353,-0.277448 -0.052,-0.554897 -0.052,-0.832346 0,-0.277449 -0.0176,-0.537546 -0.0529,-0.780383 0,-0.277449 -0.0167,-0.520193 -0.052,-0.728234 0,-0.208133 0,-0.398914 0,-0.57225 0,-0.173428 -0.0176,-0.329505 -0.052,-0.468229 0,-0.138725 0,-0.260097 0,-0.364117 v -0.26019 c -0.0353,0 -0.052,0.01735 -0.052,0.05206 v 0.208133 c 0,0.10402 -0.0176,0.225392 -0.0529,0.364117 0,0.138724 0,0.294801 0,0.468229 0,0.173336 -0.0167,0.364117 -0.052,0.57225 0,0.208041 0,0.450785 0,0.728234 -0.0343,0.242837 -0.052,0.502934 -0.052,0.780383 0,0.277449 -0.0176,0.554898 -0.052,0.832346 -0.0353,0.624307 -0.0529,1.283225 -0.0529,1.976847 0,0.693622 -0.0167,1.421948 -0.052,2.184979 v 1.1445 c 0,0.20804 -0.0176,0.416173 -0.052,0.624213 0,0.208133 0,0.398821 0,0.57225 v 4.838096 c 0,0.277449 0.0176,0.485582 0.052,0.624306 v 1.71675 c 0,0.381469 0,0.762938 0,1.144499 0.0353,0.346765 0.052,0.693623 0.052,1.040387 0,0.381469 0,0.728327 0,1.04048 0.0353,0.312153 0.0529,0.624213 0.0529,0.936367 0.0343,0.312153 0.052,0.606954 0.052,0.884403 0,0.242744 0.0176,0.502841 0.052,0.78029 0,0.242837 0,0.468229 0,0.676362 0.0353,0.208041 0.052,0.398822 0.052,0.57225 0,0.173336 0,0.346765 0,0.520194 0.0353,0.138724 0.0529,0.242744 0.0529,0.312153 v 0.260097 c 0,0.0347 0.0167,0.05206 0.052,0.05206 v -0.312153 c 0,-0.06941 0,-0.173429 0,-0.312153 0.0343,-0.173429 0.052,-0.346858 0.052,-0.520194 0,-0.173428 0,-0.364209 0,-0.57225 0.0353,-0.208133 0.052,-0.433525 0.052,-0.676362 0.0353,-0.277449 0.0529,-0.537546 0.0529,-0.78029 0,-0.277449 0.0167,-0.57225 0.052,-0.884403 0,-0.312154 0,-0.624214 0,-0.936367 0.0343,-0.312153 0.052,-0.659011 0.052,-1.04048 0,-0.346764 0,-0.693622 0,-1.040387 0.0353,-0.381561 0.052,-0.76303 0.052,-1.144499 v -1.1445 c 0,-0.277449 0.0176,-0.46823 0.0529,-0.57225 z m 8.61205,-7.647288 c 0,-0.450878 -0.0167,-1.005776 -0.052,-1.664693 -0.0343,-0.658918 -0.15682,-1.283225 -0.3656,-1.872827 -0.20879,-0.589602 -0.53913,-1.092443 -0.99102,-1.508616 -0.41757,-0.450878 -1.04392,-0.67627 -1.87905,-0.67627 H 178.886 c -0.3823,0.03461 -0.71264,0.190688 -0.99102,0.468137 -0.27838,0.277449 -0.41757,0.606954 -0.41757,0.988423 v 11.705094 c 0,0.381469 0.13919,0.710974 0.41757,0.988423 0.27838,0.277449 0.60872,0.416173 0.99102,0.416173 h 1.87997 c 0.83513,0 1.46148,-0.208133 1.87905,-0.624306 0.45189,-0.416173 0.78223,-0.919015 0.99102,-1.508617 0.20878,-0.624306 0.33127,-1.248519 0.3656,-1.872826 0.0353,-0.658918 0.052,-1.213815 0.052,-1.664693 z m 3.49734,28.508287 c 0,0 -0.0167,-0.01735 -0.052,-0.05206 l -0.052,-0.05196 c -0.0353,-0.06941 -0.0696,-0.138724 -0.10486,-0.208133 0,-0.06932 -0.0343,-0.138724 -0.10393,-0.20804 -0.0353,-0.104113 -0.0696,-0.208133 -0.10485,-0.312153 -0.0343,-0.138725 -0.0696,-0.294801 -0.10393,-0.46823 -0.0696,-0.346765 -0.10486,-0.67627 -0.10486,-0.988423 -0.0343,-0.173429 -0.052,-0.346765 -0.052,-0.520194 0,-0.208133 0,-0.433525 0,-0.67627 v -2.757229 c 0,-0.242744 0,-0.485489 0,-0.728326 0,-0.242745 0.0176,-0.502842 0.052,-0.78029 0,-0.242838 0,-0.485582 0,-0.728327 0,-0.242744 -0.0167,-0.485582 -0.052,-0.728326 v -0.728327 c 0,-0.346764 -0.0176,-0.589602 -0.052,-0.728326 0,-0.242745 -0.0176,-0.468137 -0.052,-0.67627 0,-0.242745 -0.0176,-0.46823 -0.0529,-0.67627 -0.0696,-0.485582 -0.13919,-0.901755 -0.20878,-1.24852 -0.0343,-0.173429 -0.0696,-0.329505 -0.10393,-0.46823 -0.0353,-0.173428 -0.0872,-0.346857 -0.15682,-0.520193 -0.0696,-0.173429 -0.12155,-0.312153 -0.15682,-0.416173 -0.0343,-0.104113 -0.0863,-0.208133 -0.15589,-0.312154 -0.0696,-0.104113 -0.12248,-0.19078 -0.15682,-0.260096 -0.0353,-0.06941 -0.0696,-0.138725 -0.10485,-0.208133 -0.0343,0 -0.0696,-0.01735 -0.10393,-0.05206 -0.0353,0 -0.052,-0.01726 -0.052,-0.05196 l 0.052,0.05196 c 0,0.0347 0.0176,0.06941 0.052,0.104113 0,0.03461 0,0.06932 0,0.10402 0.0353,0 0.052,0.03471 0.052,0.10402 0.0353,0.03471 0.0529,0.06941 0.0529,0.10402 0,0.0347 0.0167,0.08676 0.052,0.156077 0.0343,0.138725 0.0872,0.381562 0.15682,0.728327 0.0343,0.173428 0.052,0.346857 0.052,0.520286 0.0343,0.173336 0.0696,0.346764 0.10392,0.520193 0,0.173429 0,0.364117 0,0.57225 0.0353,0.173429 0.0529,0.381469 0.0529,0.624214 v 6.450825 c 0,0.138724 0,0.260096 0,0.364116 0.0343,0.104113 0.052,0.225486 0.052,0.36421 0,0.242745 0,0.485489 0,0.728327 0.0343,0.20804 0.0696,0.416173 0.10393,0.624213 0.0353,0.208133 0.0529,0.416173 0.0529,0.624306 0.0343,0.208041 0.0696,0.398822 0.10393,0.57225 0.0696,0.208041 0.12155,0.398821 0.15681,0.57225 0.0343,0.138725 0.0872,0.294801 0.15682,0.46823 0.0696,0.173336 0.12156,0.31206 0.15589,0.416173 0.0353,0.10402 0.0872,0.20804 0.15682,0.312061 l 0.10486,0.104112 c 0.0343,0.03461 0.052,0.06932 0.052,0.104021 0,0 0.0176,0.01735 0.052,0.05206 l 0.20878,0.20804 z"
     fill="#f4ede8"
     id="path64" />
  <ellipse
     style="stroke-width:0.927923"
     cy="-67.438057"
     cx="202.82924"
     rx="2.7963319"
     ry="2.7869136"
     transform="scale(1,-1)"
     fill="#999591"
     id="ellipse66" />
  <ellipse
     style="stroke-width:0.927923"
     cy="-67.438057"
     cx="24.796789"
     rx="2.7963319"
     ry="2.7869136"
     transform="scale(1,-1)"
     fill="#999591"
     id="ellipse68" />
</svg>
